<svg width="100" height="36" viewBox="0 0 134 36" fill="none" xmlns="http://www.w3.org/2000/svg">
  <path d="M41.292 12.098c-1.602-1.73-3.433-2.353-5.768-2.353-1.305 0-2.563.3-3.73.83-3.777 1.685-5.975 5.33-5.975 9.437 0 5.467 4.143 10.197 9.705 10.197 2.335 0 4.807-.946 6.066-2.976h.068v2.976h4.19V4h-4.556v8.098zM36.005 26.01c-3.32 0-5.63-2.976-5.63-6.16 0-3.045 2.54-5.883 5.63-5.883 3.227 0 5.63 2.884 5.63 6.021 0 3.138-2.403 6.022-5.63 6.022zM65.028 12.813h-.068c-.183-.277-.48-.577-.687-.784-1.533-1.43-3.525-2.284-5.63-2.284-5.631 0-9.545 4.637-9.545 10.128 0 5.468 3.525 10.336 9.27 10.336 2.334 0 5.15-1.2 6.66-3v3h4.19V10.391h-4.19v2.422zM59.33 26.01c-3.25 0-5.654-2.7-5.654-5.906 0-3.276 2.267-6.114 5.654-6.114 3.365 0 5.562 2.7 5.562 5.975 0 3.276-2.174 6.045-5.562 6.045zM82.882 9.745c-2.495 0-4.6.9-6.18 2.907h-.069V10.39h-4.188V36H77v-8.236c1.785 1.73 3.319 2.468 5.86 2.468 5.584 0 9.544-4.868 9.544-10.313.023-5.468-3.914-10.174-9.522-10.174zM82.31 26.01a4.944 4.944 0 01-2.22-.554c-2.198-.992-3.32-3.068-3.32-5.468 0-3.206 2.335-6.021 5.632-6.021 3.227 0 5.493 2.953 5.493 6.021-.023 3.115-2.358 6.022-5.585 6.022zM100.049 4h-4.578v6.39h-2.22v4.084h2.22v15.758h4.578V14.474h2.747v-4.083h-2.747V4zM110.601 4h-4.555v4.222h4.555V4zM110.601 10.39h-4.555v19.82h4.555V10.39zM129.782 12.813h-.068c-.183-.277-.481-.577-.687-.784-1.534-1.43-3.525-2.284-5.631-2.284-5.631 0-9.545 4.637-9.545 10.128 0 5.468 3.525 10.336 9.271 10.336 2.334 0 5.15-1.2 6.66-3v3h4.189V10.391h-4.189v2.422zm-5.699 13.197c-3.25 0-5.654-2.7-5.654-5.906 0-3.276 2.266-6.114 5.654-6.114 3.365 0 5.562 2.7 5.562 5.975 0 3.276-2.174 6.045-5.562 6.045zM11.994 10.621l1.442 3.576 2.38 6 3.96-1.431-2.86-7.222-2.93-7.36h-3.983L0 29.403h5.333c2.129-2.308 5.333-6.668 10.46-9.206l3.686 9.205h4.509l-4.212-10.635c1.35-.323 2.816-.531 4.418-.531V13.99c-6.752.046-11.994 2.745-15.84 5.837l3.64-9.206z" fill="currentColor"/>
</svg>