<svg width="332" height="84" viewBox="0 0 332 84" fill="none" xmlns="http://www.w3.org/2000/svg">
<rect width="332" height="84" fill="white"/>
<path fill-rule="evenodd" clip-rule="evenodd" d="M148.169 36.7971L148.169 45.5941H149.14H150.111L150.142 41.6102C150.172 37.7757 150.179 37.6039 150.353 37.0321C150.858 35.3685 151.907 34.6447 153.824 34.6363C155.433 34.6294 156.292 35.2599 156.592 36.6665C156.687 37.1109 156.711 38.0582 156.712 41.4079L156.713 45.5941H157.697H158.68L158.643 41.0035C158.613 37.334 158.581 36.3134 158.485 35.9174C158.135 34.4738 157.298 33.6042 155.88 33.2114C155.338 33.0614 155.002 33.025 154.15 33.0239C153.01 33.0226 152.375 33.1444 151.669 33.5002C151.155 33.7591 150.458 34.318 150.296 34.6012C150.223 34.7295 150.144 34.8346 150.122 34.8349C150.099 34.8353 150.092 33.3088 150.106 31.4428L150.132 28.0501L149.15 28.0251L148.169 28L148.169 36.7971ZM161.695 28.7284C161.016 29.0214 160.908 30.3928 161.523 30.907C161.727 31.0773 161.855 31.1144 162.242 31.1144C163.013 31.1144 163.386 30.6975 163.386 29.8361C163.386 29.3049 163.177 28.8926 162.814 28.7102C162.548 28.5765 162.027 28.585 161.695 28.7284ZM139.706 28.9735C137.885 29.3359 136.608 30.3655 136.16 31.8328C135.982 32.4136 136.008 33.8923 136.206 34.5294C136.415 35.2036 136.875 35.9025 137.456 36.4296C137.978 36.9026 139.374 37.6197 140.723 38.1071C143.451 39.093 144.331 39.9347 144.244 41.4744C144.186 42.5163 143.708 43.2167 142.756 43.6546C141.997 44.0038 141.418 44.0836 139.97 44.0387C138.889 44.0051 138.526 43.9586 137.65 43.7416C137.079 43.6002 136.444 43.4131 136.24 43.3259C136.035 43.2387 135.852 43.1674 135.834 43.1674C135.815 43.1674 135.8 43.6016 135.8 44.1323V45.0971L136.227 45.2548C136.847 45.4835 137.675 45.6543 138.636 45.7516C142.672 46.1598 145.265 45.0658 146.103 42.6011C146.334 41.9242 146.307 40.3079 146.055 39.6586C145.535 38.3187 144.394 37.4284 142.104 36.576C139.397 35.5682 138.553 35.0269 138.19 34.0669C137.982 33.515 137.995 32.5792 138.217 32.0844C138.387 31.7071 138.873 31.2122 139.277 31.0041C140.386 30.4344 142.444 30.5096 144.495 31.1947C144.913 31.3345 145.267 31.4373 145.28 31.4232C145.294 31.4091 145.436 31.0223 145.597 30.5637L145.888 29.73L145.61 29.6145C145.071 29.3905 143.887 29.0823 143.124 28.9671C142.189 28.8259 140.431 28.8292 139.706 28.9735ZM96.44 29.15C96.3216 29.4736 94.9789 32.8725 93.2994 37.1004C92.831 38.2794 92.2565 39.7355 92.0229 40.3361C91.7892 40.9368 91.5495 41.5374 91.4902 41.6709C91.3334 42.0235 90.0539 45.2855 90.0068 45.4526C89.9702 45.5819 90.0536 45.5941 90.9731 45.5935L91.9795 45.5928L92.3758 44.5621C93.1429 42.5671 93.432 41.8257 93.7239 41.1046L94.0186 40.3766H97.3076H100.597L100.982 41.3473C101.194 41.8812 101.655 43.046 102.007 43.9358L102.647 45.5537L103.681 45.5763C104.249 45.5888 104.715 45.5814 104.715 45.5599C104.715 45.5384 104.679 45.4372 104.636 45.335C104.592 45.2329 104.353 44.6214 104.105 43.9763C103.856 43.3312 103.581 42.6395 103.494 42.4393C103.407 42.2391 103.148 41.5839 102.918 40.9833C102.688 40.3826 102.189 39.1086 101.809 38.152C101.43 37.1955 100.955 35.9942 100.754 35.4826C100.553 34.9709 100.136 33.9153 99.8276 33.1367C99.5189 32.3581 99.0304 31.1204 98.7419 30.3863L98.2173 29.0516L97.3551 29.0286C96.5892 29.0082 96.4869 29.0218 96.44 29.15ZM209.342 29.0717L207.898 29.0958V37.345V45.5941H208.799H209.7L209.674 38.3947C209.659 34.435 209.652 31.1953 209.657 31.1953C209.662 31.1953 209.73 31.3682 209.808 31.5795C209.886 31.7908 210.127 32.4188 210.343 32.9749C211.625 36.2769 212.034 37.3351 212.701 39.0823C213.108 40.1501 213.64 41.5333 213.883 42.1562C214.126 42.7791 214.518 43.7983 214.754 44.4212L215.184 45.5537L216.01 45.5767L216.835 45.5996L217.089 44.9295C217.229 44.561 217.394 44.132 217.456 43.9763C217.775 43.1757 218.353 41.7038 218.757 40.6597C219.007 40.0146 219.282 39.3047 219.368 39.0823C219.454 38.8598 219.724 38.1682 219.968 37.5453C220.517 36.1426 221.731 33.0212 222.108 32.0446C222.485 31.0641 222.561 30.9146 222.498 31.2762C222.471 31.4319 222.431 34.7171 222.409 38.5767L222.369 45.5941H223.352H224.334L224.355 37.3431L224.376 29.0921H222.901H221.425L220.934 30.3257C220.663 31.0042 220.31 31.9051 220.149 32.3278C219.987 32.7504 219.815 33.1872 219.767 33.2985C219.719 33.4097 219.484 34.0103 219.246 34.6332C219.008 35.2561 218.506 36.5483 218.131 37.5049C217.755 38.4614 217.158 39.999 216.803 40.9219C216.448 41.8446 216.133 42.6 216.103 42.6004C216.073 42.6008 216.004 42.4646 215.951 42.2978C215.897 42.131 215.714 41.6486 215.544 41.2259C215.374 40.8033 214.936 39.6748 214.57 38.7183C213.886 36.9328 213.326 35.4887 212.984 34.6332C212.877 34.3662 212.548 33.5108 212.252 32.7322C211.497 30.7481 210.815 29.0078 210.8 29.0294C210.793 29.0394 210.137 29.0585 209.342 29.0717ZM227.672 37.3441V45.6084L230.907 45.5694C234.414 45.5271 234.788 45.4891 236.091 45.0427C237.932 44.4119 239.345 43.1682 240.161 41.4608C240.754 40.2181 241.082 38.2525 240.982 36.5399C240.757 32.7005 238.868 30.2355 235.482 29.3645C234.632 29.1458 234.62 29.145 231.151 29.1124L227.672 29.0798V37.3441ZM234.71 31.0309C237.09 31.6824 238.394 33.1856 238.783 35.7252C239.018 37.2557 238.879 38.9104 238.409 40.2031C237.911 41.5718 237.069 42.5078 235.784 43.1217C234.515 43.7278 233.521 43.8954 231.194 43.8954H229.707V37.3345V30.7736L231.883 30.8134C233.796 30.8482 234.139 30.8747 234.71 31.0309ZM97.6208 32.2064C97.7559 32.6513 98.032 33.4522 98.2346 33.9861C99.6629 37.7514 99.9309 38.4852 99.8924 38.5236C99.8729 38.5429 98.7035 38.5492 97.2938 38.5374L94.7307 38.516L95.6942 36.0084C96.6315 33.5691 97.0422 32.4142 97.229 31.6927C97.2792 31.4991 97.3325 31.3535 97.3477 31.3691C97.3627 31.3847 97.4856 31.7615 97.6208 32.2064ZM110.135 33.1076C109.257 33.2947 108.576 33.6616 107.953 34.2824C107.348 34.8865 107.385 34.8998 107.24 34.0265C107.083 33.0828 107.186 33.1736 106.305 33.2029L105.528 33.2287V39.4114V45.5941H106.455H107.381L107.421 41.7315C107.457 38.1145 107.471 37.8283 107.633 37.2307C107.892 36.275 108.185 35.7547 108.682 35.3645C109.453 34.7588 110.677 34.4833 111.778 34.6672C112.825 34.8421 113.343 35.2053 113.738 36.0424L113.951 36.4937L113.974 41.0439L113.998 45.5941H114.971H115.944V41.1417C115.944 36.2387 115.918 35.9047 115.453 34.9471C115.076 34.171 114.272 33.4886 113.459 33.2534C112.419 32.9529 111.127 32.8963 110.135 33.1076ZM123.227 33.1089C122.342 33.2968 121.678 33.6519 121.053 34.2718C120.479 34.8408 120.483 34.8406 120.389 34.3096C120.366 34.1762 120.308 33.8667 120.26 33.622L120.173 33.1771H119.401H118.63V39.3856V45.5941L119.586 45.5941L120.542 45.5939L120.544 41.8528C120.546 38.5724 120.564 38.0279 120.691 37.4322C121.042 35.7944 121.841 34.9747 123.349 34.7068C124.106 34.5724 124.521 34.5669 125.075 34.6836C125.961 34.8704 126.579 35.3541 126.89 36.1056C127.043 36.4739 127.052 36.7263 127.075 41.0439L127.099 45.5941H128.077H129.054L129.027 40.8417C129.002 36.5016 128.986 36.0507 128.851 35.6444C128.365 34.1898 127.479 33.4174 125.937 33.1028C125.165 32.9454 123.986 32.948 123.227 33.1089ZM170.586 33.0938C169.634 33.2998 168.849 33.7508 168.242 34.4406C167.824 34.9154 167.843 34.9346 167.694 33.8849L167.599 33.2176H166.794H165.99V42.1967V51.1757H166.966H167.943L167.938 48.2029C167.935 46.5678 167.906 44.9663 167.874 44.6437C167.841 44.3211 167.821 44.0572 167.829 44.0572C167.838 44.0572 168.073 44.28 168.353 44.5522C169.747 45.9084 172.293 46.2348 174.2 45.3019C175.38 44.7249 176.302 43.4964 176.71 41.9589C176.883 41.3058 176.921 40.9528 176.952 39.689C176.993 38.0281 176.858 37.029 176.461 36.0522C175.983 34.8754 175.109 33.8836 174.173 33.4539C173.202 33.0081 171.685 32.8558 170.586 33.0938ZM183.587 33.102C182.787 33.2761 182.205 33.6012 181.537 34.2461C181.204 34.5679 180.924 34.823 180.916 34.813C180.907 34.8031 180.85 34.4371 180.789 33.9998L180.678 33.2045L179.885 33.1909L179.091 33.1771L179.091 42.179V51.1808L180.047 51.1581L181.004 51.1353L181.026 48.4254C181.038 46.9349 181.014 45.3515 180.973 44.9066C180.932 44.4616 180.913 44.0829 180.93 44.0649C180.947 44.0469 181.108 44.198 181.287 44.4007C182.699 45.9954 185.884 46.3142 187.73 45.0455C188.511 44.5089 189.231 43.5746 189.582 42.6411C190.147 41.1399 190.23 38.657 189.779 36.7768C189.468 35.4791 188.507 34.1412 187.467 33.5574C186.528 33.0305 184.83 32.8312 183.587 33.102ZM161.304 33.2109C161.285 33.2294 161.27 36.0232 161.27 39.4194V45.5941H162.247H163.223V39.4108V33.2274L162.28 33.2023C161.762 33.1885 161.322 33.1923 161.304 33.2109ZM192.209 38.2509C193.33 41.0217 194.404 43.6891 194.596 44.1785C194.787 44.6679 195 45.1975 195.068 45.3554C195.189 45.6361 195.183 45.6642 194.804 46.6093C194.252 47.9834 194.043 48.3575 193.576 48.8074C192.918 49.4409 192.179 49.6172 190.769 49.477L190.362 49.4365L190.338 50.1572C190.325 50.5536 190.344 50.9077 190.381 50.9443C190.418 50.9809 190.826 51.0517 191.289 51.1017C193.346 51.3242 194.782 50.6462 195.785 48.9789C196.131 48.4033 196.57 47.3423 197.64 44.5021C198.327 42.6763 198.78 41.4839 199.192 40.417C199.32 40.0833 199.534 39.5191 199.666 39.1632C199.797 38.8073 200.171 37.8244 200.495 36.9791C200.819 36.1338 201.166 35.2237 201.266 34.9568C201.366 34.6898 201.559 34.1883 201.695 33.8422L201.942 33.213L200.885 33.2355L199.828 33.258L199.596 33.8647C199.329 34.5631 198.071 38.0167 197.728 38.9911C196.843 41.5102 196.435 42.7106 196.306 43.1674C196.138 43.7649 196.153 43.7808 195.815 42.6416C195.589 41.8812 194.914 40.0112 194.266 38.3543C194.058 37.8204 193.819 37.1917 193.735 36.9572C193.652 36.7226 193.496 36.3222 193.388 36.0673C193.28 35.8124 193.081 35.3127 192.945 34.9568C192.809 34.6008 192.604 34.073 192.491 33.7838L192.284 33.258L191.228 33.2355L190.172 33.213L192.209 38.2509ZM172.698 34.8266C173.251 35.02 173.803 35.4531 174.169 35.9809C174.735 36.7972 175.089 38.5042 174.985 39.9201C174.767 42.9117 173.257 44.4913 170.938 44.1553C168.876 43.8566 168.07 42.6653 167.966 39.7618C167.9 37.9279 168.088 36.856 168.639 35.9149C169.286 34.8103 171.19 34.2998 172.698 34.8266ZM185.373 34.7104C185.983 34.8389 186.655 35.2231 187.021 35.6524C187.354 36.0431 187.778 36.991 187.921 37.6667C188.085 38.4452 188.081 40.2365 187.913 41.0473C187.667 42.234 187.032 43.2874 186.28 43.7566C185.127 44.4753 183.226 44.3058 182.223 43.3947C181.336 42.5891 181 41.3018 181.067 38.9609C181.146 36.2179 181.722 35.2197 183.494 34.7584C184.22 34.5695 184.652 34.5584 185.373 34.7104ZM90.0671 53.0363V56.4338H91.9795H93.8918V56.0716V55.7094L92.4067 55.6874L90.9216 55.6653L90.8991 54.4317L90.8767 53.198H92.3075H93.7384L93.7133 52.8543L93.6883 52.5105L92.2822 52.4883L90.8761 52.4662L90.8988 51.4367L90.9216 50.4073L92.4067 50.3852L93.8918 50.3632V50.0009V49.6388H91.9795H90.0671V53.0363ZM94.6241 49.7178C94.6241 49.7613 94.8653 50.462 95.1602 51.275C95.455 52.088 95.8593 53.2082 96.0587 53.7643C96.2581 54.3204 96.557 55.1484 96.723 55.6041L97.0247 56.4328L97.4413 56.4333L97.858 56.4338L98.2837 55.2406C99.2742 52.4639 99.5096 51.8137 99.8578 50.8926C100.06 50.3587 100.251 49.8562 100.283 49.776C100.336 49.644 100.296 49.6324 99.8688 49.6546L99.3965 49.6792L99.0866 50.5286C98.541 52.0239 97.568 54.8483 97.5136 55.095C97.4694 55.2954 97.3719 55.0746 96.906 53.7198C96.6007 52.8323 96.1784 51.6328 95.9674 51.0544C95.7564 50.476 95.565 49.9209 95.542 49.8208C95.5051 49.6597 95.4499 49.6388 95.0622 49.6388C94.8213 49.6388 94.6241 49.6744 94.6241 49.7178ZM101.297 53.0363V56.4338H103.201H105.105L105.134 56.0697L105.163 55.7057H103.687C102.334 55.7057 102.208 55.6936 102.173 55.5601C102.123 55.3701 102.121 53.4305 102.171 53.2992C102.2 53.2238 102.56 53.198 103.589 53.198H104.968L104.943 52.8543L104.918 52.5105L103.555 52.4883C102.547 52.4719 102.191 52.4402 102.189 52.367C102.187 52.3124 102.17 51.8856 102.151 51.4184C102.132 50.9513 102.144 50.5244 102.178 50.4699C102.222 50.3989 102.656 50.3644 103.701 50.3485L105.162 50.3264L105.17 49.9826L105.177 49.6388H103.237H101.297V53.0363ZM106.749 53.0363V56.4338H107.156H107.563V55.0181V53.6025H108.236C108.998 53.6025 108.999 53.6028 109.405 54.3339C109.54 54.5768 109.868 55.1484 110.133 55.6044L110.614 56.4333L111.082 56.4335C111.34 56.4337 111.55 56.4053 111.55 56.3706C111.55 56.3358 111.152 55.6532 110.665 54.8538L109.78 53.4003L110.116 53.2257C110.575 52.9871 110.859 52.664 111.013 52.2043C111.168 51.7446 111.173 51.5662 111.051 50.9977C110.981 50.6704 110.88 50.4898 110.623 50.2342C110.126 49.7385 109.7 49.6388 108.077 49.6388H106.749V53.0363ZM111.876 49.6954C111.876 49.731 112.004 49.9712 112.161 50.2293C112.317 50.4873 112.445 50.7154 112.445 50.7359C112.445 50.7565 112.688 51.2188 112.985 51.7633C113.281 52.3077 113.666 53.0142 113.839 53.3332L114.154 53.9133V55.1735V56.4338H114.561H114.968V55.1068V53.7798L116.095 51.7295L117.223 49.6792L116.858 49.6541C116.658 49.6404 116.447 49.647 116.39 49.6689C116.332 49.6909 115.906 50.4199 115.443 51.289C114.98 52.1581 114.57 52.8598 114.53 52.8482C114.491 52.8367 114.083 52.1189 113.624 51.2532L112.788 49.6792L112.332 49.655C112.081 49.6416 111.876 49.6598 111.876 49.6954ZM120.827 53.0321V56.4338H122.739H124.651V56.1977C124.651 56.0679 124.674 55.9041 124.701 55.8337C124.745 55.7199 124.584 55.7057 123.245 55.7057C121.924 55.7057 121.733 55.6895 121.688 55.5729C121.66 55.4998 121.64 54.1438 121.643 52.5596L121.649 49.6792L121.238 49.6548L120.827 49.6303V53.0321ZM125.953 53.0363V56.4338H126.36H126.767V53.0363V49.6388H126.36H125.953V53.0363ZM128.72 53.0363V56.4338H129.127H129.534V54.9777V53.5216H130.958H132.382V53.1576V52.7936H130.958H129.534V51.5802V50.3668H131.039H132.545V50.0028V49.6388H130.633H128.72V53.0363ZM133.765 53.0363V56.4338H135.678H137.59V56.0697V55.7057H136.085H134.579V54.4519V53.198H136.008H137.437L137.412 52.8543L137.387 52.5105L135.983 52.4883L134.579 52.4662V51.4165V50.3668H136.085H137.59V50.0028V49.6388H135.678H133.765V53.0363ZM141.008 49.695C141.008 49.7659 142.614 55.8149 142.727 56.1709C142.806 56.4198 142.832 56.4338 143.205 56.4338H143.599L143.722 56.0495C143.79 55.8381 143.882 55.5379 143.926 55.3821C143.969 55.2264 144.14 54.644 144.305 54.0879C144.47 53.5317 144.74 52.5954 144.906 52.0071C145.072 51.4188 145.226 50.9188 145.249 50.8961C145.272 50.8733 145.393 51.209 145.517 51.6421C145.641 52.0752 145.938 53.0666 146.177 53.8452C146.416 54.6238 146.688 55.5247 146.783 55.8473L146.955 56.4338H147.381H147.808L148.069 55.4024C148.213 54.8352 148.46 53.8978 148.617 53.3194C149.164 51.3122 149.552 49.8184 149.552 49.7246C149.552 49.6618 149.411 49.6384 149.131 49.6548L148.709 49.6792L148.08 52.1869C147.734 53.5661 147.424 54.8038 147.391 54.9372L147.331 55.1799L147.258 54.8563C147.145 54.3558 146.875 53.4038 146.58 52.47C146.433 52.0029 146.175 51.1731 146.006 50.6261L145.699 49.6316L145.246 49.6554L144.794 49.6792L144.657 50.1646C144.582 50.4315 144.264 51.5074 143.952 52.5554C143.639 53.6033 143.354 54.6408 143.32 54.8608L143.257 55.2608L143.185 54.9372C143.145 54.7593 142.832 53.4944 142.489 52.1262L141.865 49.6388H141.436C141.201 49.6388 141.008 49.6641 141.008 49.695ZM150.773 53.0363V56.4338H152.685H154.597V56.0697V55.7057H153.092H151.587V54.4519V53.198H153.015H154.444L154.419 52.8543L154.394 52.5105H152.99H151.587V51.4386L151.587 50.3668H153.092H154.597V50.0028V49.6388H152.685H150.773V53.0363ZM156.225 53.0363V56.4338H158.137H160.05V56.0697V55.7057H158.544H157.039V52.6722V49.6388H156.632H156.225V53.0363ZM161.27 53.0363V56.4338H163.183H165.095V56.0697V55.7057H163.589H162.084V52.6722V49.6388H161.677H161.27V53.0363ZM109.575 50.4915C110.004 50.6657 110.194 50.9573 110.228 51.4957C110.267 52.0972 110.081 52.4515 109.6 52.6925C109.294 52.846 109.106 52.8745 108.4 52.8745H107.563V51.6206V50.3668H108.416C108.997 50.3668 109.366 50.4065 109.575 50.4915ZM166.399 54.9147C165.914 55.17 165.678 55.934 165.931 56.4313C166.092 56.7461 166.536 57 166.926 57C167.316 57 167.76 56.7461 167.92 56.4313C167.976 56.3214 168.022 56.0581 168.023 55.8461C168.024 55.5211 167.982 55.4145 167.753 55.1662C167.517 54.91 167.425 54.8678 167.041 54.8405C166.775 54.8216 166.52 54.851 166.399 54.9147ZM167.361 55.0928C168.184 55.5159 167.859 56.7978 166.929 56.7978C166.172 56.7978 165.738 55.906 166.217 55.3363C166.524 54.9715 166.949 54.881 167.361 55.0928ZM166.512 55.3295C166.489 55.3895 166.481 55.6899 166.495 55.9969C166.513 56.4221 166.547 56.5551 166.638 56.5551C166.715 56.5551 166.758 56.471 166.76 56.3191C166.764 55.984 166.903 55.9808 167.083 56.3119C167.167 56.4679 167.261 56.5955 167.291 56.5955C167.428 56.5955 167.439 56.4755 167.322 56.2524C167.232 56.0786 167.222 55.986 167.285 55.9229C167.432 55.7769 167.389 55.3964 167.216 55.3041C166.992 55.1849 166.562 55.2005 166.512 55.3295ZM167.112 55.6349C167.138 55.7727 166.923 55.9006 166.796 55.8225C166.756 55.7975 166.722 55.7039 166.722 55.6144C166.722 55.4922 166.768 55.4582 166.905 55.4776C167.005 55.4918 167.098 55.5626 167.112 55.6349Z" fill="black"/>
</svg>
