<svg width="332" height="84" viewBox="0 0 332 84" fill="none" xmlns="http://www.w3.org/2000/svg">
<rect width="332" height="84" fill="white"/>
<path fill-rule="evenodd" clip-rule="evenodd" d="M76.1475 29.3118L73.7547 33.6647L71.2319 33.8135C66.4109 34.0973 62.1414 35.681 59.6773 38.0991C57.8908 39.8524 57.1502 41.4343 57.0282 43.7584C56.9448 45.3458 57.0214 45.7726 57.6027 46.961C59.1185 50.0592 62.7754 51.619 67.5747 51.2143L69.7174 51.0338L68.0262 50.7147C65.9793 50.3285 65.2004 49.9425 64.0456 48.741C63.1838 47.8443 63.1633 47.7753 63.1633 45.7572C63.1633 43.1128 63.7744 41.789 66.0461 39.5123C68.0381 37.516 70.9201 35.9772 73.8445 35.3487L75.813 34.9257L77.2211 29.9836C77.9955 27.2655 78.6093 25.0229 78.5849 25.0002C78.5602 24.9773 77.4636 26.9176 76.1475 29.3118ZM78.3015 33.0483C75.5546 42.4354 75.6645 41.9254 76.7147 40.4143C77.8543 38.7744 79.9516 36.8283 81.0926 36.3513C84.6222 34.8765 85.2824 39.5335 82.2753 44.6962C79.9176 48.7436 76.599 52.4015 70.9778 57.1484L69.9695 58L71.482 57.1721C75.872 54.7691 80.9852 50.9035 83.7215 47.919C87.8221 43.4465 90.23 38.3645 89.9577 34.7573C89.5655 29.5596 85.2902 28.9571 81.0787 33.5064L79.6144 35.0881L79.7661 34.0958C80.0472 32.2568 80.7084 25.6083 80.6191 25.519C80.5705 25.4704 79.5276 28.8585 78.3015 33.0483ZM103.118 36.0251V38.8206L102.351 38.1745C98.6931 35.0969 93.6588 38.9444 94.781 43.9595C95.2842 46.208 97.3792 48.0818 99.408 48.0977C100.306 48.1047 101.815 47.4748 102.547 46.7868L103.118 46.2506V47.051C103.118 47.8431 103.131 47.8511 104.378 47.8511H105.639V40.5404V33.2296H104.378H103.118V36.0251ZM130.27 33.3862C130.172 33.485 130.091 34.0005 130.091 34.5322V35.4985H131.492H132.893L132.815 34.4271L132.738 33.3557L131.594 33.281C130.965 33.2399 130.369 33.2873 130.27 33.3862ZM178.77 33.5755C177.934 34.0474 177.501 34.9312 177.491 36.1917C177.482 37.2122 177.446 37.2631 176.726 37.2631C176.011 37.2631 175.969 37.3191 175.969 38.2715C175.969 39.2239 176.011 39.2799 176.726 39.2799H177.482V43.5655V47.8511H178.616H179.751V43.5655V39.2799H181.137H182.523V38.3976V37.5152H181.137H179.751V36.6833C179.751 35.5736 180.139 35.2464 181.455 35.2464H182.554L182.476 34.301L182.397 33.3557L180.885 33.2957C179.975 33.2596 179.132 33.3713 178.77 33.5755ZM210.756 40.5404V47.8511H212.017H213.277V44.4312C213.277 40.1191 213.642 39.3049 215.581 39.288C217.534 39.2708 218.051 40.4663 218.061 45.0151L218.067 47.8511H219.201H220.335V44.0747C220.335 39.8774 220.042 38.6353 218.849 37.7857C217.38 36.7398 215.283 36.8931 213.932 38.145L213.277 38.7518V35.9906V33.2296H212.017H210.756V40.5404ZM246.552 40.5404V47.8511H247.812H249.073V40.5404V33.2296H247.812H246.552V40.5404ZM260.164 40.5404V47.8511H261.299H262.433V44.3412C262.433 40.9329 262.452 40.8086 263.086 40.0556C263.967 39.0084 265.564 38.9494 266.485 39.93C267.064 40.5454 267.101 40.7743 267.183 44.2157L267.27 47.8511H268.381H269.491V44.131C269.491 42.085 269.381 40.0248 269.245 39.5529C268.528 37.0539 265.349 36.2674 263.286 38.0792L262.433 38.8279V36.0289V33.2296H261.299H260.164V40.5404ZM271.319 33.4033C271.561 33.4668 271.959 33.4668 272.201 33.4033C272.444 33.34 272.245 33.2881 271.76 33.2881C271.275 33.2881 271.076 33.34 271.319 33.4033ZM273.184 33.9859C273.482 34.3325 273.781 34.843 273.848 35.1203C273.966 35.6089 273.971 35.6084 273.999 35.1012C274.016 34.8135 273.717 34.303 273.335 33.9667L272.642 33.3557L273.184 33.9859ZM269.607 34.507C269.515 34.6547 269.495 34.8299 269.561 34.896C269.627 34.962 269.748 34.841 269.83 34.627C270.001 34.1828 269.855 34.1046 269.607 34.507ZM270.752 35.4985C270.752 36.1917 270.865 36.7589 271.004 36.7589C271.142 36.7589 271.256 36.5321 271.256 36.2548C271.256 35.5927 271.636 35.6139 272.118 36.3026C272.331 36.6062 272.58 36.7791 272.672 36.6868C272.765 36.5946 272.705 36.3563 272.54 36.1572C272.335 35.9106 272.324 35.7435 272.504 35.6321C272.907 35.3828 272.819 34.5634 272.369 34.391C272.15 34.3068 271.696 34.238 271.361 34.238C270.798 34.238 270.752 34.3333 270.752 35.4985ZM252.602 35.8766C252.602 37.249 252.594 37.2631 251.846 37.2631C251.131 37.2631 251.089 37.3191 251.089 38.2715C251.089 39.2239 251.131 39.2799 251.846 39.2799H252.602L252.606 42.6202C252.61 46.4432 252.786 47.0008 254.212 47.6984C255.007 48.0874 255.403 48.134 256.352 47.9505C257.489 47.7304 257.519 47.7006 257.592 46.7089L257.667 45.6927L256.642 45.7905C254.995 45.9476 254.871 45.7005 254.871 42.2743V39.2799H256.257H257.643V38.2715V37.2631H256.257H254.871V35.8766V34.4901H253.736H252.602V35.8766ZM272.264 35.1203C272.264 35.3303 272.04 35.4985 271.76 35.4985C271.48 35.4985 271.256 35.3303 271.256 35.1203C271.256 34.9103 271.48 34.7422 271.76 34.7422C272.04 34.7422 272.264 34.9103 272.264 35.1203ZM273.796 36.1496C273.809 36.4433 273.868 36.5031 273.949 36.3021C274.022 36.1201 274.012 35.9026 273.929 35.8189C273.845 35.7352 273.786 35.8839 273.796 36.1496ZM269.491 36.4789C269.491 36.7181 270.723 37.8926 270.821 37.7474C270.861 37.6889 270.578 37.3365 270.192 36.9641C269.807 36.5915 269.491 36.3732 269.491 36.4789ZM273.24 37.2001C272.927 37.5999 272.936 37.6088 273.335 37.2954C273.755 36.9659 273.889 36.7589 273.681 36.7589C273.629 36.7589 273.43 36.9573 273.24 37.2001ZM110.689 37.6889C109.568 38.2796 109.181 38.6653 108.609 39.7586C107.206 42.446 107.865 45.6834 110.106 47.1047C112.14 48.3942 114.287 48.3793 116.365 47.0608L117.552 46.3083L116.857 45.583L116.162 44.858L115.464 45.3743C114.505 46.0839 112.742 46.2531 111.735 45.732C111.004 45.3541 110.176 44.2101 110.176 43.5781C110.176 43.4047 111.534 43.3134 114.119 43.3134H118.061L117.922 41.9592C117.629 39.1233 115.99 37.3541 113.418 37.0978C112.263 36.9828 111.867 37.0685 110.689 37.6889ZM122.654 37.249C120.891 37.6657 120.007 38.7109 120.007 40.3826C120.007 41.7255 120.984 42.7013 122.928 43.3018C123.821 43.5774 124.776 43.9238 125.052 44.0712C125.608 44.3692 125.718 45.3163 125.251 45.784C124.779 46.2556 123.126 46.1407 121.727 45.5387L120.453 44.9909L119.984 45.6017C119.726 45.9377 119.512 46.3038 119.509 46.4155C119.506 46.5271 120.133 46.907 120.903 47.2595C122.536 48.0069 124.77 48.1529 125.922 47.5875C127.112 47.0036 127.891 45.6524 127.733 44.4484C127.565 43.1672 126.875 42.5652 124.559 41.6804C122.114 40.7456 121.62 40.2245 122.42 39.4238C122.921 38.9237 124.292 38.9154 125.466 39.4059C126.652 39.9013 126.633 39.9056 127.155 39.0215L127.606 38.2589L126.516 37.7913C125.193 37.2228 123.67 37.009 122.654 37.249ZM138.318 37.3804C136.198 38.1361 134.939 40.2547 135.216 42.5987C135.521 45.1666 137.381 46.8428 139.928 46.8428C141.349 46.8428 141.974 46.5967 143.01 45.6304L143.703 44.9838V45.9259C143.703 49.0057 140.879 49.9705 136.884 48.2558C136.604 48.1353 136.372 48.3425 136.063 48.9901L135.633 49.8921L136.555 50.2776C140.108 51.7619 144.211 51.0127 145.378 48.6664C145.779 47.8587 145.857 46.9827 145.923 42.4941L146 37.2631H144.852C143.736 37.2631 143.703 37.2856 143.703 38.0419V38.8206L142.939 38.1775C142.172 37.5324 140.737 37.0055 139.796 37.0234C139.518 37.0289 138.854 37.1893 138.318 37.3804ZM153.434 37.2604C153.033 37.3874 152.381 37.8016 151.985 38.1808L151.265 38.87V38.0666C151.265 37.2823 151.238 37.2631 150.131 37.2631H148.997V42.5571V47.8511H150.112H151.228L151.31 44.1733C151.391 40.4988 151.392 40.495 152.099 39.8877C152.577 39.4773 153.108 39.2824 153.737 39.288C155.67 39.3046 156.055 40.1857 156.055 44.5903V47.8511H157.189H158.324L158.323 43.8806C158.323 39.5423 158.106 38.6678 156.789 37.7038C156.021 37.1411 154.463 36.9352 153.434 37.2604ZM163.365 37.3047C161.248 37.913 160.277 39.984 161.312 41.6829C161.765 42.4255 162.457 42.8077 164.944 43.6885C166.382 44.1978 166.78 44.769 166.238 45.5432C165.712 46.2942 164.069 46.2718 162.531 45.493L161.358 44.8996L161.02 45.43C160.834 45.7217 160.604 46.0933 160.508 46.2556C160.398 46.4437 160.842 46.7989 161.728 47.2328C164.288 48.4854 167.388 48.0659 168.277 46.3469C169.34 44.2903 168.375 42.6938 165.409 41.6035C163.381 40.8583 162.808 40.3195 163.273 39.595C163.636 39.0286 165.687 39.0102 166.788 39.5638C167.549 39.9464 167.571 39.9399 167.99 39.2083C168.524 38.2786 168.278 37.9289 166.827 37.5563C165.03 37.095 164.284 37.0408 163.365 37.3047ZM186.809 37.4129C182.518 39.2716 182.288 45.3443 186.431 47.4138C190.384 49.3889 195.045 46.2161 194.556 41.8813C194.156 38.3345 190.092 35.9906 186.809 37.4129ZM201.543 37.3657C201.12 37.5498 200.468 38.0645 200.093 38.5095L199.413 39.3185V38.2909V37.2631H198.152H196.892V42.5571V47.8511H198.152H199.413V45.0531C199.413 41.6451 199.729 40.7985 201.28 40.0473C201.866 39.7639 202.479 39.532 202.643 39.532C202.834 39.532 202.942 39.0744 202.942 38.2715C202.942 36.8951 202.814 36.8121 201.543 37.3657ZM226.007 37.3002C223.821 38.1077 222.602 39.9752 222.528 42.6297C222.489 44.0304 222.585 44.4073 223.247 45.4802C224.951 48.2376 228.933 48.9198 231.248 46.8508L232.057 46.1276L231.46 45.4915L230.863 44.8555L230.163 45.3728C229.201 46.0837 227.439 46.2534 226.432 45.732C225.701 45.3541 224.873 44.2101 224.873 43.5781C224.873 43.4047 226.231 43.3134 228.815 43.3134H232.758L232.605 42.024C232.391 40.2154 231.546 38.6096 230.415 37.8614C229.32 37.1361 227.187 36.8646 226.007 37.3002ZM130.343 42.5571V47.8511H131.477H132.611V42.5571V37.2631H131.477H130.343V42.5571ZM236.292 37.542C235.259 37.8407 235.153 38.0368 235.493 39.0142C235.7 39.6064 235.88 39.772 236.184 39.6502C237.057 39.2998 239.492 39.2181 240.208 39.5149C240.927 39.8126 241.51 40.6843 241.51 41.4618C241.51 41.7628 241.351 41.8157 240.836 41.6864C239.66 41.3912 237.065 41.5036 236.14 41.8901C234.021 42.7755 233.617 45.5525 235.375 47.1438C236.515 48.1756 239.116 48.1597 240.532 47.1123C241.431 46.4477 241.51 46.4566 241.51 47.2209C241.51 47.8015 241.601 47.8511 242.667 47.8511H243.823L243.738 43.8806C243.642 39.3853 243.429 38.7346 241.751 37.791C241.019 37.3796 240.402 37.2682 238.955 37.2858C237.934 37.2984 236.736 37.4136 236.292 37.542ZM271.445 37.9342C271.618 38.0043 271.902 38.0043 272.075 37.9342C272.248 37.8644 272.107 37.8072 271.76 37.8072C271.413 37.8072 271.272 37.8644 271.445 37.9342ZM101.23 39.3908C103.781 40.4567 103.734 44.674 101.159 45.7552C100.342 46.0983 100.089 46.1046 99.2192 45.8031C96.5128 44.8646 96.2975 40.5333 98.9008 39.4017C99.9388 38.9502 100.173 38.9491 101.23 39.3908ZM114.432 39.439C114.919 39.7801 115.722 41.1668 115.722 41.6667C115.722 41.7406 114.462 41.8009 112.922 41.8009C110.473 41.8009 110.142 41.7509 110.275 41.402C110.36 41.1827 110.428 40.888 110.428 40.7468C110.428 40.6059 110.781 40.1615 111.211 39.7591C112.12 38.9106 113.484 38.7749 114.432 39.439ZM142.18 39.4402C143.709 40.343 144.114 42.123 143.127 43.5912C142.038 45.2094 139.789 45.4111 138.394 44.0158C137.78 43.4022 137.653 43.0671 137.653 42.0676C137.653 40.763 138.283 39.6711 139.263 39.2749C140.13 38.9247 141.433 38.9986 142.18 39.4402ZM191.023 39.9492C192.643 41.1562 192.679 43.6858 191.098 45.2001C190.475 45.7973 190.116 45.9312 189.139 45.9307C187.078 45.9299 185.8 44.6387 185.8 42.5571C185.8 39.6106 188.656 38.1845 191.023 39.9492ZM229.405 39.778C229.79 40.1907 230.16 40.8147 230.227 41.1646L230.349 41.8009H227.611C225.867 41.8009 224.873 41.7048 224.873 41.5362C224.873 41.0297 225.63 39.8121 226.188 39.4213C226.497 39.2048 227.189 39.0278 227.727 39.0278C228.486 39.0278 228.86 39.1954 229.405 39.778ZM241.292 43.2086C241.591 43.3931 241.567 44.5018 241.251 45.092C240.892 45.7615 239.689 46.3386 238.652 46.3386C236.484 46.3386 235.886 43.8844 237.846 43.0349C238.349 42.8168 240.864 42.9434 241.292 43.2086Z" fill="black"/>
</svg>
