<svg width="332" height="84" viewBox="0 0 332 84" fill="none" xmlns="http://www.w3.org/2000/svg">
<rect width="332" height="84" fill="white"/>
<path fill-rule="evenodd" clip-rule="evenodd" d="M123.418 24.0152C121.82 24.0856 119.928 24.3743 118.289 24.798C117.668 24.9585 117.38 25.0616 116.952 25.2766C116.192 25.6584 115.704 26.1657 115.279 27.0144C115.059 27.4531 115.002 27.6582 115 28.017C114.999 28.2789 115.006 28.3346 115.059 28.4544C115.093 28.5298 115.161 28.6284 115.212 28.6734C115.525 28.9521 116.311 29.1395 117.165 29.1391C117.961 29.1387 118.348 29.0047 118.428 28.7024C118.476 28.5238 118.402 28.3265 118.229 28.1675C118.027 27.983 117.853 27.9277 117.209 27.8441C116.721 27.7807 116.45 27.7109 116.45 27.648C116.45 27.5189 117.585 27.187 118.484 27.0529C120.182 26.8 122.744 26.7741 124.973 26.9873C128.853 27.3582 132.757 28.366 136.692 30.0118C141.766 32.1345 146.298 35.3031 148.937 38.574C150.391 40.3773 151.49 42.5083 151.815 44.1578C151.916 44.6736 151.939 44.966 151.924 45.5797C151.898 46.6349 151.693 47.4763 151.233 48.4106C150.538 49.8256 149.299 50.9571 147.419 51.8959C145.603 52.8024 143.625 53.2875 140.914 53.4908C140.702 53.5068 139.99 53.526 139.333 53.5336C138.366 53.5448 138.026 53.5391 137.559 53.5041C136.364 53.4147 135.759 53.3359 134.589 53.1179L134.409 53.0844L134.404 52.9411C134.384 52.444 134.211 43.6208 134.221 43.6111C134.234 43.5974 135.184 43.6368 135.81 43.677C137.93 43.813 141.202 44.4634 142.653 45.0368C143.419 45.3397 143.691 45.6995 143.48 46.131C143.364 46.3675 142.96 46.7407 142.649 46.8985C142.6 46.9236 142.402 47.032 142.209 47.1393C141.829 47.3511 141.801 47.3812 141.801 47.5818C141.801 47.7406 141.889 47.8227 142.168 47.9252C142.802 48.1582 143.645 48.2277 144.153 48.0889C144.439 48.011 144.933 47.7578 145.198 47.5542C145.809 47.084 146.285 46.3368 146.418 45.6379C146.547 44.9595 146.31 44.0509 145.831 43.3936C145.334 42.7098 144.524 42.0733 143.645 41.6743C142.344 41.084 140.151 40.545 137.937 40.2712C137.076 40.1648 136.762 40.1501 135.438 40.155L134.178 40.1596L134.172 39.9279C134.159 39.3932 134.11 38.2354 134.086 37.9084C133.956 36.1271 133.55 34.565 132.997 33.7216C132.827 33.462 132.503 33.1417 132.314 33.0462C132.128 32.9522 131.9 32.9477 131.771 33.0355C131.604 33.15 131.444 33.5922 131.25 34.4775C131.148 34.9407 131.069 35.4741 130.953 36.4861C130.772 38.0556 130.744 38.4103 130.72 39.4314C130.701 40.2401 130.689 40.4303 130.658 40.4796C130.609 40.555 130.498 40.5811 129.552 40.7408C128.578 40.9053 127.844 41.0937 126.595 41.4997C125.236 41.9415 124.426 42.2723 123.611 42.7176C122.482 43.3347 121.738 43.986 121.413 44.6419C121.214 45.0429 121.106 45.5561 121.141 45.9338C121.182 46.3716 121.339 46.831 121.607 47.2963C122.303 48.5051 123.27 49.5425 125.179 51.1295C125.733 51.5901 126.072 51.8435 126.747 52.3019C127.742 52.9774 128.613 53.4836 129.813 54.084C130.294 54.3244 130.565 54.4741 130.565 54.4988C130.565 54.584 130.7 55.7167 130.749 56.0453C130.777 56.238 130.829 56.5068 130.864 56.6425C131.135 57.7031 131.814 58.182 132.901 58.0805C133.438 58.0305 133.731 57.9221 133.938 57.698C134.084 57.5395 134.112 57.4844 134.214 57.1614C134.3 56.8871 134.344 56.5643 134.344 56.1971C134.345 55.9967 134.35 55.9688 134.39 55.9688C134.415 55.9688 134.67 56.0213 134.956 56.0855C136.453 56.4213 137.465 56.5776 138.793 56.6784C139.374 56.7226 141.437 56.7226 141.981 56.6784C143.051 56.5917 143.918 56.4734 144.796 56.2945C147.605 55.7224 150.035 54.7035 151.798 53.3584C152.447 52.8633 152.82 52.4979 153.42 51.7669C154.021 51.0368 154.325 50.5848 154.714 49.8486C155.351 48.6442 155.654 47.7243 155.772 46.6385C155.928 45.2064 155.883 44.4671 155.561 43.1409C155.419 42.554 155.231 42.0787 154.729 41.0272C154.232 39.986 154.072 39.6924 153.667 39.0698C152.153 36.748 149.956 34.4347 147.47 32.5457C145.513 31.0584 145.018 30.717 143.639 29.9039C141.724 28.774 140.248 28.021 138.472 27.2678C134.254 25.4789 130.176 24.3893 126.58 24.0902C125.625 24.0107 124.257 23.9783 123.418 24.0152ZM161.804 27.0013C160.407 27.1567 159.022 27.6934 157.664 28.6061C157.445 28.7534 157.11 29.0003 156.919 29.1548C156.528 29.4712 155.834 30.1618 155.572 30.4964C154.993 31.2325 154.606 32.0199 154.447 32.7832C154.398 33.0159 154.387 33.1471 154.387 33.5108C154.387 34.0128 154.422 34.2418 154.571 34.7113C154.689 35.0829 154.796 35.2953 155.045 35.6542C155.157 35.8149 155.285 36.0267 155.331 36.1249L155.414 36.3034L155.431 36.8514C155.449 37.4515 155.471 37.571 155.622 37.9043C155.784 38.2597 156.042 38.5702 156.28 38.6936C156.534 38.8258 156.851 38.7391 157.092 38.472C157.161 38.3955 157.296 38.1847 157.393 38.0018C157.489 37.8195 157.588 37.6458 157.612 37.6157L157.656 37.5611L157.795 37.6291C157.97 37.7144 158.263 37.7888 158.628 37.8404C158.784 37.8624 159.027 37.8983 159.168 37.9203C159.758 38.0121 160.504 37.9413 161.405 37.7078C162.647 37.3863 164.025 36.6811 165.227 35.7519C165.884 35.2443 166.889 34.2986 167.236 33.8631C167.722 33.2525 168.077 32.5272 168.221 31.8528C168.293 31.5183 168.288 30.8498 168.212 30.5414C168.093 30.0631 167.903 29.7232 167.544 29.3447C167.123 28.901 166.472 28.5479 165.887 28.4455C165.755 28.4224 165.628 28.3928 165.604 28.3797C165.58 28.3667 165.508 28.2878 165.445 28.2044C165.107 27.7584 164.446 27.3194 163.846 27.143C163.435 27.0221 163.212 26.9938 162.601 26.9852C162.283 26.9807 161.924 26.988 161.804 27.0013ZM160.221 29.9962C160.208 30.0082 160.052 30.1404 159.876 30.2899C158.994 31.0361 157.938 32.1453 157.298 32.9954C157.193 33.1353 156.973 33.447 156.809 33.688C156.645 33.929 156.503 34.1286 156.494 34.1317C156.464 34.142 156.324 33.7819 156.286 33.596C156.147 32.9207 156.665 31.973 157.612 31.1699C158.109 30.7487 158.912 30.2627 159.331 30.1296C159.425 30.0997 159.641 30.0536 159.811 30.0271C160.164 29.9721 160.256 29.9652 160.221 29.9962ZM165.397 30.2726C165.829 30.3894 166.171 30.6769 166.294 31.0279C166.535 31.7163 166.166 32.5826 165.297 33.3651C164.382 34.189 163.072 34.8567 161.817 35.1392C161.276 35.2607 160.887 35.3027 160.171 35.317C159.317 35.3339 158.95 35.2971 158.95 35.1943C158.95 35.1834 159.023 35.0763 159.113 34.956C159.203 34.8358 159.392 34.5786 159.533 34.3844C159.878 33.9083 160.194 33.5409 160.686 33.0415C161.778 31.9322 163.089 30.9208 163.889 30.5709C164.112 30.4731 164.543 30.3365 164.825 30.2738C165.03 30.2283 165.232 30.2279 165.397 30.2726ZM185.249 38.1683C185.124 38.2069 185.047 38.2792 184.977 38.4247C184.914 38.5559 184.907 38.5969 184.909 38.8332C184.911 38.9777 184.932 39.2075 184.955 39.3439C185.015 39.6901 185.246 40.6024 185.597 41.884C186.052 43.5436 186.283 44.5041 186.495 45.6206C186.691 46.6495 186.833 47.8915 186.869 48.883C186.895 49.6007 186.887 49.6595 186.763 49.6741C186.599 49.6934 186.379 49.3864 185.02 47.2387C183.979 45.5931 182.778 43.7814 181.817 42.4083C181.288 41.651 180.918 41.3785 180.422 41.3802C179.978 41.3816 179.644 41.7462 179.315 42.5864C178.514 44.6385 177.883 47.5937 177.719 50.066C177.685 50.5797 177.685 51.7708 177.719 52.1584C177.826 53.3793 178.186 54.2636 178.716 54.608C178.923 54.7426 179.293 54.8561 179.532 54.858C179.714 54.8594 179.757 54.8498 179.908 54.7748C180.264 54.5968 180.438 54.2891 180.583 53.5807C180.685 53.0839 180.739 52.3109 180.791 50.6185C180.882 47.6324 180.964 46.2715 181.066 46.0593C181.114 45.9585 181.148 45.9589 181.26 46.0617C181.377 46.1689 181.502 46.3949 182.373 48.0739C183.409 50.0729 183.787 50.7583 184.334 51.6292C185.229 53.0546 185.817 53.7217 186.317 53.8784C187.048 54.1078 188.094 53.7535 188.649 53.0883C188.991 52.6784 189.345 52.0669 189.52 51.5842C189.624 51.2997 189.761 50.7581 189.825 50.3798C190.182 48.2903 189.957 45.8153 189.197 43.4805C189.062 43.0671 188.559 41.8064 188.398 41.4786C188.121 40.9166 187.583 40.0644 187.123 39.4619C186.813 39.0557 186.323 38.555 186.067 38.3835C185.77 38.1845 185.461 38.1032 185.249 38.1683ZM199.354 39.8667C197.651 40.0054 195.158 40.3093 193.999 40.5196C193.222 40.6605 192.277 40.858 192.125 40.9113C191.703 41.0587 191.546 41.3015 191.639 41.6668C191.752 42.1155 192.088 42.49 192.589 42.725C192.889 42.8655 193.168 42.9529 194.048 43.1826L194.142 43.2071L194.096 43.3307C194.071 43.3988 193.926 43.8068 193.774 44.2374C193.482 45.0686 193.365 45.3533 193.257 45.497C193.172 45.6102 193.051 45.6855 192.952 45.6862C192.812 45.6872 192.522 45.762 192.36 45.8391C191.958 46.0297 191.797 46.3468 191.861 46.8205C191.876 46.9357 191.934 47.2753 191.99 47.5752C192.045 47.8751 192.091 48.1549 192.091 48.197C192.091 48.2899 191.945 48.6754 191.679 49.2875C191.438 49.8396 191.364 50.0711 191.281 50.5293C191.044 51.8319 191.21 52.8102 191.841 53.817C192.258 54.4837 192.822 54.8768 193.699 55.113L194.109 55.2233L194.597 55.2232C195.131 55.2231 195.431 55.1824 196.037 55.0278C197.504 54.6537 199.466 53.6631 200.656 52.6954C200.943 52.462 201.104 52.2742 201.196 52.0657C201.307 51.8145 201.254 51.3175 201.076 50.9416C200.973 50.7257 200.728 50.379 200.599 50.2685C200.301 50.0124 200.141 50.0156 198.261 50.316C197.476 50.4414 196.458 50.6088 195.999 50.688C195.387 50.7935 195.068 50.8359 194.809 50.8464C194.588 50.8554 194.456 50.8513 194.456 50.8353C194.456 50.801 194.691 49.9801 194.818 49.5716C194.942 49.1702 195.298 48.1613 195.324 48.135C195.346 48.113 195.578 48.0736 195.909 48.0361C196.036 48.0217 196.996 47.9917 198.043 47.9695C199.089 47.9473 200.032 47.9176 200.138 47.9034C200.702 47.8278 200.88 47.5348 200.85 46.7327C200.842 46.5178 200.819 46.2902 200.797 46.2113C200.666 45.7401 200.412 45.5181 199.919 45.4453C199.804 45.4282 199.114 45.4235 197.985 45.4321C197.02 45.4395 196.23 45.4379 196.229 45.4287C196.229 45.4194 196.353 44.9877 196.505 44.4693L196.783 43.5268L198.261 43.5114C200.005 43.4932 200.611 43.4584 201.539 43.323C202.586 43.1702 203.115 42.9378 203.219 42.5838C203.321 42.2382 203.155 41.7694 202.727 41.1912C202.197 40.4768 201.649 40.0972 200.884 39.9147C200.627 39.8535 199.825 39.8284 199.354 39.8667ZM170.507 40.2596C168.687 40.364 166.828 40.7462 165.555 41.2772C164.246 41.8233 163.373 42.5313 162.927 43.4082C162.779 43.6986 162.642 44.1088 162.589 44.417C162.538 44.7127 162.538 45.2746 162.588 45.5155C162.688 45.9945 163.028 46.4351 163.474 46.6643C163.648 46.7534 164.021 46.874 164.311 46.9349C164.877 47.0537 165.298 47.1006 167.511 47.2913C169.999 47.5057 171.072 47.6534 172.163 47.9314C172.702 48.0689 173.029 48.1846 173.423 48.3785C173.688 48.5086 173.77 48.5633 173.898 48.6963C173.983 48.7846 174.076 48.8686 174.105 48.883C174.195 48.9277 174.282 49.1444 174.283 49.3241C174.285 49.6291 174.086 49.8919 173.618 50.206C172.457 50.9839 171.019 51.448 169.144 51.6503C168.623 51.7065 167.175 51.7315 166.789 51.691C166.022 51.6105 165.135 51.3045 164.799 51.0047C164.545 50.7778 164.46 50.5722 164.521 50.33C164.639 49.8541 165.114 49.5733 165.802 49.5728C166.344 49.5724 166.718 49.6873 168.06 50.2652C168.966 50.6556 169.321 50.7609 169.832 50.7913C170.375 50.8236 171.215 50.6564 171.895 50.3809C172.645 50.0771 172.964 49.7025 172.782 49.3396C172.754 49.2834 172.705 49.2123 172.673 49.1817C172.533 49.0476 171.531 48.6024 171.008 48.4422C170.138 48.1757 168.744 47.9241 167.73 47.8505C166.848 47.7865 165.887 47.8951 165.161 48.1408C163.927 48.5588 163.269 49.3568 163.269 50.4375C163.269 50.9656 163.383 51.343 163.678 51.7967C164.198 52.5957 165.024 53.2755 166.162 53.8429C166.939 54.2303 167.642 54.4707 168.527 54.6509C169.238 54.7958 169.614 54.8317 170.417 54.8315C171.004 54.8314 171.196 54.8214 171.548 54.7731C173.29 54.5339 174.504 54.0118 175.44 53.0986C176.061 52.4928 176.417 51.8446 176.584 51.0159C176.847 49.7128 176.62 48.4381 175.941 47.4077C175.389 46.5703 174.513 46.1024 172.866 45.7668C172.211 45.6333 171.713 45.5656 168.913 45.2297C166.241 44.9092 165.69 44.8283 165.438 44.7189C165.118 44.5798 165.119 44.3933 165.442 44.2303C165.649 44.1257 166.372 43.9438 167.068 43.8211C168.123 43.6353 169.33 43.5398 171.702 43.4544C174.023 43.3709 175.031 43.2884 175.713 43.1263C176.112 43.0315 176.506 42.7986 176.731 42.5249C176.905 42.3131 177.05 41.9511 177.05 41.7263C177.05 41.4642 176.929 41.3389 176.447 41.1026C175.495 40.6361 174.179 40.347 172.602 40.2581C172.066 40.2279 171.047 40.2286 170.507 40.2596ZM208.198 40.4236C208.002 40.5174 207.788 40.6932 207.46 41.0319C207.119 41.3839 206.967 41.562 206.586 42.0581C205.272 43.7691 204.29 45.5402 203.763 47.1474C203.283 48.6122 203.154 50.0835 203.391 51.3754C203.487 51.9024 203.686 52.5675 203.887 53.0387L203.987 53.2711L203.772 53.8435C202.774 56.5048 202.283 58.1265 201.926 59.9414C201.731 60.9338 201.537 62.162 201.409 63.2242C201.353 63.6931 201.33 64.8523 201.371 65.2103C201.514 66.4832 201.94 67.1056 203.115 67.7627C203.466 67.9593 203.576 68.0004 203.747 68C203.906 67.9996 204.157 67.8707 204.24 67.7468C204.27 67.7021 204.33 67.5045 204.378 67.2924C204.512 66.6962 204.925 64.7291 205.124 63.7462C205.508 61.8434 205.622 61.3461 206.037 59.7461C206.374 58.4478 206.616 57.6047 206.915 56.68L207.187 55.8383H207.757C208.739 55.8383 209.42 55.7207 210.385 55.3848C211.912 54.8532 213.657 53.6993 214.719 52.519C216.075 51.0127 216.816 49.3153 216.98 47.3356C217.019 46.8618 216.998 45.8789 216.94 45.5032C216.771 44.4091 216.452 43.5398 215.976 42.8795C215.82 42.6626 215.48 42.3233 215.286 42.1911C214.886 41.9176 214.533 41.8086 214.124 41.8322C213.808 41.8505 213.566 41.9212 213.186 42.1071C212.56 42.4129 212.033 42.7784 211.451 43.3115C210.808 43.8996 209.105 45.6801 208.495 46.4036C207.977 47.0164 207.188 48.0706 206.064 49.6507C205.569 50.347 205.615 50.3298 205.562 49.8368C205.538 49.6146 205.538 49.5034 205.562 49.3347C205.636 48.808 205.728 48.4018 205.886 47.8912C206.247 46.7253 206.507 46.1708 207.46 44.5375C207.665 44.1858 207.929 43.7161 208.047 43.4936C208.876 41.9262 209.101 40.6487 208.59 40.413C208.446 40.3469 208.354 40.3494 208.198 40.4236ZM159.057 40.4176C158.863 40.4743 158.633 40.8304 158.478 41.3143C158.229 42.0906 157.965 43.8449 157.859 45.4249C157.626 48.8873 157.706 52.5408 158.039 53.6231C158.222 54.2196 158.568 54.5592 159.156 54.72C159.34 54.7702 159.437 54.7795 159.773 54.779C160.331 54.778 160.555 54.7188 160.781 54.5123C161.223 54.1087 161.318 53.4035 161.229 51.1927C161.206 50.6257 161.175 49.8153 161.16 49.3919C161.016 45.2658 160.776 42.6798 160.438 41.6299C160.226 40.971 159.928 40.6235 159.429 40.4536C159.221 40.3826 159.188 40.3794 159.057 40.4176ZM130.553 43.9242C130.553 44.0103 130.543 44.8618 130.531 45.8164C130.518 46.9467 130.521 48.3193 130.54 49.7526C130.557 50.963 130.565 51.9586 130.559 51.9652C130.544 51.9797 129.488 51.5793 129.07 51.4007C127.636 50.7883 125.502 49.4875 124.215 48.4403C123.929 48.208 122.942 47.263 122.727 47.0169C122.316 46.5452 122.206 46.3448 122.19 46.0382C122.18 45.8425 122.185 45.822 122.256 45.7101C122.577 45.203 123.768 44.758 125.976 44.3192C127.118 44.0924 128.007 43.9711 129.434 43.8476C129.851 43.8115 130.239 43.7775 130.296 43.7721C130.352 43.7666 130.433 43.7634 130.476 43.7649C130.552 43.7676 130.553 43.7682 130.553 43.9242ZM214.601 44.7096C214.697 44.7557 214.813 44.922 214.892 45.1282C215.071 45.5899 215.095 46.4936 214.947 47.1795C214.77 48.0053 214.293 49.0075 213.753 49.692C213.56 49.936 213.103 50.4027 212.865 50.5992C212.193 51.1519 211.113 51.7124 210.286 51.9371C209.852 52.0551 209.125 52.1307 209.06 52.0646C209.023 52.0272 209.33 51.4926 209.817 50.749C210.047 50.3974 210.418 49.816 210.641 49.4571C211.886 47.4569 213.031 45.9326 213.973 45.0228C214.355 44.6536 214.419 44.6216 214.601 44.7096Z" fill="black"/>
</svg>
