<svg width="332" height="84" viewBox="0 0 332 84" fill="none" xmlns="http://www.w3.org/2000/svg">
<rect width="332" height="84" fill="white"/>
<path fill-rule="evenodd" clip-rule="evenodd" d="M59 42V60H77.0019H95.0039V42V24H77.0019H59V42ZM75.185 32.3035C75.5472 32.378 75.5894 32.4773 75.5415 33.1395L75.4869 33.8911L73.7161 33.9948L71.9452 34.0985L71.3463 34.7914C70.8307 35.3879 70.7545 35.5943 70.8 36.2762L70.8528 37.0682L73.2798 37.0272C76.1437 36.9789 75.6953 36.7196 78.4273 40.0032C79.4301 41.2084 80.3114 42.1707 80.3858 42.1419C80.4601 42.1128 81.0875 41.3937 81.7803 40.544C83.0312 39.0091 83.3532 38.6205 84.1578 37.6761C84.5226 37.2476 84.7331 37.1742 85.7801 37.1102C86.7467 37.0512 86.9832 37.0876 86.9832 37.2954C86.9832 37.4904 84.7447 40.3399 84.1275 40.9307C84.0762 40.9797 83.635 41.5005 83.1472 42.0879C82.6592 42.6753 82.1598 43.2625 82.0371 43.3928C81.7177 43.7321 81.7596 43.9925 82.2154 44.4981C82.6889 45.0233 85.2372 47.9983 86.6802 49.7102C87.239 50.3732 87.6961 50.9948 87.6961 51.0914C87.6961 51.1886 87.1905 51.2673 86.5663 51.2673C85.2814 51.2673 85.4871 51.4295 83.0627 48.505C82.3314 47.6228 81.5826 46.7406 81.3987 46.5446C81.2146 46.3485 80.9429 46.0078 80.7948 45.7871C80.6469 45.5665 80.4647 45.3861 80.3902 45.3861C80.3157 45.3861 79.142 46.7041 77.7817 48.3148L75.3087 51.2433L74.1056 51.2554C73.4438 51.262 72.9025 51.1921 72.9025 51.1002C72.9025 50.9679 77.0408 45.9987 78.6438 44.2058C78.9811 43.8287 78.9764 43.8203 77.3589 41.889C76.4662 40.8227 75.5017 39.6899 75.2158 39.3713L74.6959 38.7921H72.7321H70.7683L70.7214 44.9851L70.6745 51.1782H69.6051H68.5357L68.4466 45.0297L68.3574 38.8812L67.3771 38.7921L66.3968 38.703L66.3423 38.0462C66.2778 37.2726 66.7392 36.909 67.5736 37.0758C68.1837 37.1979 68.3439 36.9627 68.5287 35.6733C68.8041 33.7531 69.9623 32.6167 71.9887 32.2784C73.0903 32.0945 74.2118 32.1034 75.185 32.3035ZM108.283 35.9802C105.243 37.0029 103.539 38.6454 102.716 41.3465C102.358 42.5183 102.318 45.5268 102.643 46.7228C103.437 49.6455 105.313 51.5674 108.104 52.3206C109.214 52.62 112.329 52.5653 113.225 52.2306C115.781 51.2759 117.574 49.5192 118.061 47.4923C118.184 46.9778 118.14 46.9477 116.927 46.7228C116.584 46.6591 116.168 46.5693 116.003 46.523C115.785 46.462 115.61 46.6508 115.361 47.2138C114.872 48.318 114.024 49.2118 112.963 49.7405C112.201 50.1201 111.795 50.198 110.579 50.198C107.825 50.198 106.506 49.2385 105.364 46.4025C105.254 46.1284 105.165 45.166 105.166 44.2639C105.17 41.6277 105.934 39.9366 107.618 38.8332C108.429 38.3018 109.307 38.0847 110.655 38.0819C112.792 38.0774 114.55 39.171 115.26 40.9451C115.575 41.7318 115.773 41.7801 117.266 41.4358C118.111 41.2406 118.16 41.1993 118.054 40.7674C117.537 38.6468 115.355 36.6829 112.718 35.9627C111.829 35.72 109.023 35.7312 108.283 35.9802ZM150.614 35.9344C150.467 36.0327 150.18 36.1145 149.977 36.1161C149.302 36.1211 147.477 37.1448 146.625 37.9967C145.068 39.5531 144.374 41.4732 144.377 44.2156C144.38 47.058 145.138 49.0109 146.854 50.5992C148.294 51.9328 150.028 52.5149 152.557 52.5149C156.075 52.5149 158.556 51.1027 159.876 48.3488C161.52 44.9185 160.765 40.0867 158.23 37.8037C157.297 36.9634 156.127 36.3339 154.998 36.0655C153.937 35.8128 150.929 35.7228 150.614 35.9344ZM172.715 35.9406C172.568 36.0356 172.282 36.1145 172.08 36.1161C171.373 36.1213 169.84 37.0263 168.824 38.0386C167.029 39.8273 166.586 41.0533 166.586 44.2277C166.586 46.5989 166.778 47.5183 167.559 48.8831C168.172 49.9546 169.935 51.6238 170.454 51.6238C170.58 51.6238 170.76 51.6967 170.853 51.7858C171.569 52.4715 175.675 52.7695 177.193 52.2457C179.333 51.5074 180.837 50.2951 181.612 48.6832C181.847 48.1931 182.113 47.644 182.202 47.4629C182.291 47.2818 182.335 47.1042 182.299 47.0682C182.177 46.9464 179.962 46.472 179.847 46.5431C179.784 46.582 179.549 46.9717 179.323 47.4093C178.307 49.3855 176.93 50.2003 174.616 50.1941C172.908 50.1895 171.929 49.8261 170.877 48.807C168.906 46.8972 168.561 43.1399 170.114 40.5001C170.741 39.4347 171.126 39.1252 172.935 38.2319C173.367 38.0188 176.235 38.04 176.369 38.2574C176.43 38.3554 176.626 38.4356 176.806 38.4356C177.298 38.4356 178.824 39.8976 179.302 40.8254C179.763 41.7225 180.103 41.8293 181.289 41.4497C181.622 41.3429 181.997 41.2246 182.121 41.1864C182.278 41.1385 182.298 41.0189 182.185 40.8011C182.096 40.6274 181.838 40.0984 181.612 39.6258C180.789 37.9046 179.078 36.5827 176.933 36.0117C175.877 35.7305 173.112 35.6838 172.715 35.9406ZM194.104 35.9344C193.957 36.0327 193.651 36.1145 193.424 36.1161C192.783 36.1204 191.104 37.017 190.177 37.8509C189.103 38.8161 188.312 40.4062 187.936 42.3564C187.291 45.6984 188.517 49.4258 190.798 51.0642C193.003 52.6471 196.965 53.0025 199.629 51.856C200.871 51.3213 201.056 51.2005 201.868 50.3939C203.467 48.8042 204.082 47.0633 204.079 44.1386C204.076 41.83 203.767 40.5965 202.821 39.1232C201.888 37.6688 200.208 36.4883 198.47 36.0652C197.436 35.8132 194.419 35.7228 194.104 35.9344ZM124.361 36.0522C124.291 36.1215 124.235 39.8138 124.235 44.2575V52.3366H125.571H126.908V48.7723C126.908 46.0457 126.961 45.2052 127.131 45.1965C129.52 45.0737 135.068 45.1101 135.241 45.2496C135.405 45.3826 135.464 46.3353 135.464 48.8831V52.3366H136.692C137.512 52.3366 137.948 52.2627 138.003 52.1139C138.136 51.7535 138.094 36.3378 137.96 36.1204C137.885 35.9985 137.398 35.9427 136.695 35.9759L135.553 36.0297L135.464 39.4158L135.375 42.802L131.145 42.8497L126.916 42.8975L126.868 39.4636L126.819 36.0297L125.653 35.9778C125.012 35.9493 124.43 35.9828 124.361 36.0522ZM210.501 44.1386V52.3366H215.501H220.5L220.447 51.2557L220.394 50.175L216.836 50.1419L213.279 50.1089L213.14 49.4851C213.063 49.1421 213.005 46.0545 213.01 42.6238C213.014 39.1931 213.013 36.286 213.007 36.1634C213 36.0074 212.623 35.9406 211.749 35.9406H210.501V44.1386ZM231.213 36.1545C231.095 36.2721 230.999 36.4266 230.999 36.4979C230.999 36.5692 230.715 37.2548 230.368 38.0216C230.02 38.7885 229.668 39.5762 229.586 39.7723C229.503 39.9683 229.145 40.7544 228.791 41.5193C228.437 42.2843 228.147 42.9438 228.147 42.9852C228.147 43.0265 227.899 43.6038 227.597 44.2678C227.294 44.9319 226.924 45.7559 226.775 46.099C226.626 46.4421 226.232 47.3084 225.899 48.0243C225.567 48.7402 225.295 49.3593 225.295 49.4001C225.295 49.4411 225.094 49.9132 224.849 50.4495C224.604 50.9857 224.325 51.6296 224.23 51.8806L224.056 52.3366H225.452H226.848L227.513 50.7327L228.178 49.1287H232.621H237.064L237.489 50.0644C237.722 50.5789 238.038 51.3008 238.19 51.6683L238.466 52.3366H239.908C241.224 52.3366 241.335 52.3095 241.186 52.0248C241.096 51.8533 240.844 51.3119 240.625 50.8218C240.406 50.3317 240.035 49.5072 239.801 48.9897C239.567 48.4723 239.376 48.017 239.376 47.978C239.376 47.9391 239.095 47.2995 238.752 46.5569C238.409 45.814 238.128 45.1709 238.128 45.1275C238.128 45.0841 237.847 44.4428 237.504 43.7025C237.161 42.9622 236.6 41.7507 236.257 41.0104C235.914 40.27 235.633 39.6304 235.633 39.5891C235.633 39.5197 234.907 37.8978 234.26 36.5198C233.99 35.9452 233.978 35.9406 232.707 35.9406C231.949 35.9406 231.339 36.0277 231.213 36.1545ZM242.941 37.0076V38.0792H245.158C246.411 38.0792 247.422 38.155 247.483 38.2535C247.542 38.3496 247.586 41.4261 247.579 45.0905C247.572 48.7548 247.617 51.8843 247.679 52.0447C247.768 52.276 248.046 52.3366 249.02 52.3366H250.248V45.4079C250.248 39.907 250.296 38.4392 250.482 38.2852C250.613 38.1762 251.649 38.0689 252.844 38.0405L254.972 37.9901V37.0099V36.0297L248.956 35.9828L242.941 35.9358V37.0076ZM260.752 36.1905C260.71 36.2327 260.697 39.8828 260.723 44.3019L260.771 52.3366H266.274C272.433 52.3366 271.993 52.4405 271.993 50.9854V50.198H267.928C264.939 50.198 263.781 50.1385 263.555 49.9735C263.288 49.7778 263.254 49.4607 263.298 47.523L263.349 45.297L267.256 45.2489C269.854 45.2168 271.245 45.1327 271.408 44.9974C271.572 44.8613 271.636 44.494 271.6 43.8871L271.548 42.9802L267.448 42.8911L263.349 42.802L263.299 40.645C263.261 38.9967 263.306 38.4406 263.491 38.287C263.651 38.1541 265.116 38.0698 267.819 38.038L271.904 37.9901V37.099V36.2079L266.366 36.1609C263.321 36.135 260.794 36.1484 260.752 36.1905ZM154.952 38.5194C156.929 39.4233 158.096 41.5427 158.096 44.2277C158.096 46.2095 157.559 47.6506 156.379 48.8384C155.32 49.9043 154.379 50.2442 152.483 50.2458C151.113 50.247 150.745 50.1804 149.979 49.7924C148.24 48.9109 147.415 47.6711 147.065 45.4122C146.645 42.7011 147.585 40.0216 149.339 38.9286C150.388 38.2754 150.974 38.123 152.524 38.1004C153.733 38.0829 154.158 38.1562 154.952 38.5194ZM198.339 38.4656C200.613 39.5057 201.802 42.1825 201.402 45.3624C201.128 47.5524 200.248 48.8824 198.47 49.7979C197.703 50.193 197.356 50.2559 195.975 50.2508C193.048 50.2399 191.471 49.0606 190.639 46.2594C189.785 43.3831 191.024 39.6208 193.123 38.7147C193.417 38.5878 193.859 38.3984 194.104 38.2938C194.349 38.189 195.212 38.0979 196.022 38.0913C197.172 38.0819 197.679 38.1639 198.339 38.4656ZM232.959 39.2911C232.959 39.4675 233.027 39.6882 233.111 39.7812C233.194 39.8742 233.393 40.2879 233.552 40.7003C233.711 41.1128 234.012 41.8346 234.22 42.3042C234.428 42.774 234.663 43.3188 234.742 43.5149C234.932 43.9907 235.603 45.5148 235.934 46.2238C236.08 46.5374 236.148 46.8782 236.084 46.9812C235.901 47.277 229.408 47.2339 229.294 46.9359C229.245 46.8081 229.411 46.2268 229.662 45.6438C230.391 43.9556 230.455 43.8043 230.624 43.3812C230.713 43.1606 230.958 42.5892 231.17 42.1114C231.383 41.6336 231.718 40.8318 231.916 40.3297C232.3 39.3549 232.551 38.9703 232.803 38.9703C232.889 38.9703 232.959 39.1147 232.959 39.2911Z" fill="black"/>
</svg>
