<svg width="332" height="84" viewBox="0 0 332 84" fill="none" xmlns="http://www.w3.org/2000/svg">
<rect width="332" height="84" fill="white"/>
<path fill-rule="evenodd" clip-rule="evenodd" d="M196.803 28.1488C193.469 28.4899 190.46 30.0047 188.078 32.5406C185.671 35.1036 184.7 37.4911 184.459 41.4471C184.046 48.2175 187.22 53.6626 192.957 56.0217C195.032 56.8749 195.735 56.9864 199.116 56.9988C202.697 57.0114 203.078 56.9454 205.252 55.9297C206.527 55.3345 208.284 54.1987 209.157 53.4061L210.743 51.9648V54.4033V56.8414H211.784H212.825V49.6574V42.4734H207.076H201.326L201.436 43.4141L201.546 44.3549L206.057 44.526L210.569 44.697L210.673 46.8532C210.805 49.6074 210.086 50.8298 207.221 52.7154C204.449 54.5401 202.898 54.9599 198.924 54.9595C195.837 54.9595 195.448 54.8788 193.267 53.7879C189.523 51.9145 187.431 48.939 186.806 44.5971C185.947 38.6269 188.35 33.6925 193.276 31.3081C195.13 30.4108 195.618 30.329 199.116 30.329C202.297 30.329 203.205 30.4525 204.557 31.0683C206.39 31.9033 209.218 34.326 209.545 35.3417C209.723 35.8966 209.955 35.9743 210.86 35.7834C211.463 35.6558 212.008 35.507 212.07 35.4522C212.38 35.1782 210.956 33.207 209.434 31.8038C205.98 28.6192 202.382 27.5779 196.803 28.1488ZM95.5153 38.6248C95.5084 48.2579 95.4515 49.266 94.8413 50.591C93.2394 54.0701 88.1187 54.4669 86.1388 51.2656C85.7661 50.6635 85.4607 49.9013 85.46 49.5719C85.4589 49.0816 85.1442 48.9732 83.7233 48.9732C81.6636 48.9732 81.5682 49.2783 82.813 51.881C83.7882 53.9192 84.7478 54.8483 86.8468 55.7864C91.0971 57.6857 96.3524 55.6704 98.1386 51.4558C98.5488 50.4883 98.6464 48.1289 98.6464 39.1817V28.1054H97.0847H95.5229L95.5153 38.6248ZM115.303 38.9669C115.302 49.2017 115.262 49.8928 114.612 50.9433C113.501 52.7404 111.988 53.4824 109.769 53.3202C108.052 53.1947 107.754 53.0455 106.558 51.7175C105.833 50.9125 105.24 49.9656 105.24 49.6133C105.24 49.0738 104.969 48.9732 103.514 48.9732H101.787L101.994 50.085C102.551 53.0756 105.527 55.9013 108.6 56.3553C111.671 56.8096 114.245 56.0823 116.125 54.2292C118.255 52.1297 118.239 52.2276 118.428 39.6508L118.602 28.1047L116.953 28.105L115.305 28.1054L115.303 38.9669ZM122.211 29.1967C122.382 29.6311 124.512 34.7591 126.945 40.5919C129.378 46.4246 131.877 52.4284 132.498 53.9336C133.617 56.6413 133.643 56.6714 134.965 56.7706L136.301 56.8708L142.027 43.1025C145.177 35.5299 147.804 29.1347 147.866 28.8908C147.941 28.5942 147.594 28.4475 146.818 28.4475H145.659L140.489 41.0195C137.645 47.9343 135.223 53.704 135.105 53.8419C134.987 53.9794 133.923 51.6703 132.74 48.7105C131.556 45.7503 129.204 40.0188 127.512 35.9736L124.436 28.6185L123.168 28.5125C121.97 28.4122 121.917 28.4499 122.211 29.1967ZM152.439 42.6444V56.8414H153.567L154.694 56.8417L154.6 42.6444L154.506 28.4475H153.472H152.439V42.6444ZM161.809 42.6444V56.8414H162.85H163.891V51.0141V45.1869L167.588 45.284L171.285 45.3812L174.616 51.0962L177.947 56.8116L179.394 56.8263L180.842 56.8414L177.193 50.8291C175.187 47.5224 173.598 44.7794 173.663 44.7333C173.729 44.6871 174.414 44.4709 175.186 44.253C178.896 43.2048 181.025 39.555 180.267 35.5391C179.256 30.1781 175.961 28.4475 166.768 28.4475H161.809V42.6444ZM218.993 42.6444L218.898 56.8417L220.026 56.8414H221.154V42.6444V28.4475H220.12H219.087L218.993 42.6444ZM228.095 42.6239V56.8414H229.345H230.596L230.473 44.526C230.406 37.7525 230.429 32.2167 230.524 32.2245C230.62 32.2324 234.758 37.7726 239.721 44.5362C248.385 56.3443 248.789 56.8335 249.872 56.8373L251 56.8414V42.6444V28.4475H249.959H248.918V40.5919C248.918 47.2713 248.801 52.7267 248.657 52.715C248.514 52.7031 244.397 47.2767 239.508 40.6562C230.853 28.9353 230.586 28.6158 229.357 28.5125L228.095 28.4061V42.6239ZM174.835 31.5356C178.897 33.5731 179.37 39.6001 175.658 42.0232C174.233 42.9533 174.004 42.9906 169.037 43.1035L163.891 43.2202V36.8336V30.447L168.501 30.5592C172.617 30.6591 173.296 30.7638 174.835 31.5356Z" fill="black"/>
</svg>
