<svg width="332" height="84" viewBox="0 0 332 84" fill="none" xmlns="http://www.w3.org/2000/svg">
<rect width="332" height="84" fill="white"/>
<path fill-rule="evenodd" clip-rule="evenodd" d="M242.036 22.0843C241.126 23.5712 241.187 25.1429 242.208 26.4751C243.275 27.869 243.261 28.0708 242.005 29.4957C240.664 31.018 241.002 31.005 242.709 29.4687C244.256 28.0762 244.373 27.3098 243.338 25.3321C242.807 24.3186 242.669 23.5936 242.794 22.486C242.887 21.6686 242.903 21 242.831 21C242.759 21 242.401 21.4878 242.036 22.0843ZM244.675 27.0052C244.565 27.2805 244.339 27.956 244.173 28.5065C243.793 29.7633 241.572 31.2859 238.303 32.5304C236.853 33.0825 235.314 33.9713 234.474 34.7423L233.071 36.0314L233.522 34.771C233.77 34.078 233.98 32.9481 233.988 32.2598C234.002 31.0591 233.958 31.0087 232.876 31.0087C230.505 31.0087 229.287 32.7939 227.808 38.4318C227.291 40.4045 226.758 42.0183 226.623 42.0183C226.282 42.0183 225.088 38.9863 224.279 36.0624C223.41 32.9214 222.479 31.1161 221.585 30.8332C220.684 30.5483 218.256 30.9059 216.705 31.5522L215.506 32.0509L216.251 32.8403L216.995 33.6296L215.098 38.4078C214.054 41.0357 212.993 43.6567 212.741 44.2322C212.218 45.4239 209.764 46.9602 206.908 47.883L205.097 48.4685L204.313 47.5601C203.881 47.0607 203.528 46.36 203.528 46.0031C203.528 45.4146 203.777 45.3545 206.218 45.3545C207.72 45.3545 209.386 45.1553 209.991 44.9038C211.071 44.4544 213.24 42.2918 213.24 41.6646C213.24 40.97 211.282 40.6494 207.642 40.7482C203.296 40.8659 203.324 40.8913 204.726 38.0879C205.6 36.3407 208.569 33.3441 209.425 33.3441C209.681 33.3441 209.887 33.607 209.883 33.9279C209.87 34.8884 208.279 38.4542 207.726 38.7624C207.443 38.9199 207.212 39.3613 207.212 39.743C207.212 40.3705 207.36 40.4202 208.757 40.2634C211.704 39.9325 214.325 37.4193 214.38 34.8711C214.407 33.6013 214.245 33.1909 213.378 32.3268C210.711 29.6699 206.302 30.6601 201.801 34.9264L199.907 36.7223L199.678 35.617C199.027 32.4786 196.034 30.3865 191.76 30.0819C188.555 29.8534 185.022 30.5109 183.757 31.5715C183.211 32.0286 182.765 32.2391 182.765 32.0393C182.765 30.7992 178.867 33.0018 177.561 34.9792C177.125 35.6394 176.085 37.9477 175.248 40.1083C174.412 42.2692 173.403 44.6712 173.006 45.4462L172.284 46.8558L171.859 45.6324C171.39 44.2839 170.966 41.4998 170.343 35.6794C169.903 31.5745 169.688 31.007 168.576 31.012C167.535 31.0167 164.482 32.5107 164.243 33.1315C164.072 33.5753 163.854 33.4962 162.936 32.6575C161.167 31.0407 158.874 30.5556 153.975 30.7618C151.554 30.8639 149.168 31.1518 148.333 31.4427C147.1 31.8728 146.861 31.8781 146.707 31.4778C146.462 30.8432 145.068 30.8856 143.918 31.5625C142.571 32.3552 141.753 34.014 140.568 38.3544C139.517 42.2051 139.366 42.5991 139.062 42.2955C138.83 42.0646 137.412 38.0185 136.541 35.1016C135.529 31.7143 134.9 31.0087 132.893 31.0087C131.274 31.0087 129.373 31.4938 128.586 32.108C128.248 32.3726 128.312 32.6084 128.893 33.224C129.549 33.9202 129.582 34.1044 129.198 34.9254C128.843 35.6848 126.707 40.896 125.676 43.5196C125.463 44.06 125.3 43.8185 124.816 42.2501C124.487 41.1849 124.116 39.5334 123.992 38.5803C123.612 35.6574 122.808 33.3527 121.751 32.1534C120.805 31.0804 120.612 31.0087 118.664 31.0087C116.056 31.0087 115.236 31.5028 115.8 32.7352C116.162 33.5266 115.96 34.016 113.432 38.4765C110.838 43.0535 110.607 43.3528 109.668 43.3528C108.954 43.3528 108.344 43.6947 107.539 44.5441C106.222 45.9357 106.119 46.738 107.165 47.465C107.579 47.7529 107.731 47.9965 107.502 48.0061C107.006 48.0268 105.227 45.6651 104.5 44.02C104.216 43.3778 103.791 42.069 103.555 41.1115L103.128 39.3703L106.4 37.2208C108.2 36.0384 109.994 34.6215 110.386 34.0727C111.801 32.0926 110.938 30.7385 108.661 31.365C107.012 31.8184 103.94 34.1421 101.639 36.6753C100.58 37.8416 99.7136 38.6697 99.7136 38.5152C99.7136 38.3611 100.2 36.8524 100.793 35.1633C102.086 31.4851 101.925 31.0087 99.3827 31.0087C97.5137 31.0087 96.3252 31.788 95.3916 33.626C94.0795 36.2096 90.0019 49.4934 90.0019 51.1852C90.0019 52.9234 91.9757 52.6885 94.1505 50.6915C95.1729 49.7523 95.854 48.6864 96.5409 46.9496C97.0693 45.6134 97.6782 44.2529 97.8935 43.9256C98.2364 43.4048 98.3101 43.4875 98.4889 44.5928C99.4035 50.2571 101.717 52.7022 106.147 52.6869C109.191 52.6762 110.803 51.8538 112.052 49.6753L113.047 47.9387L115.841 47.8687C117.377 47.83 118.957 47.6855 119.351 47.5481C119.983 47.3275 120.134 47.4907 120.62 48.9116C121.476 51.4194 122.486 52.4517 124.083 52.4517C124.847 52.4517 125.991 52.1284 126.769 51.6927C127.907 51.0555 128.123 50.7665 128.112 49.8954C128.1 48.8989 131.183 39.3907 131.528 39.3633C131.62 39.3563 131.97 40.2884 132.305 41.4348C133.052 43.986 135.595 49.4214 136.745 50.923C137.854 52.3726 138.929 52.3793 140.018 50.9427C140.471 50.3465 141.841 47.1561 143.063 43.8532C144.285 40.5503 145.442 37.451 145.632 36.9659C145.863 36.3804 146.453 35.904 147.388 35.548C149.082 34.9034 149.472 34.8751 149.015 35.4292C148.709 35.8002 147.063 41.0214 145.231 47.4353C144.353 50.5066 144.396 50.9067 145.677 51.5873C146.537 52.0443 147.641 52.1684 150.951 52.1798C154.97 52.1931 155.226 52.1517 157.374 51.1379C160.384 49.7173 162.414 47.7789 163.817 44.9832L164.969 42.6892L165.688 44.6055C166.083 45.6598 167.001 47.6482 167.727 49.0244L169.047 51.5265L167.618 52.7736C165.297 54.7984 160.004 57.2191 155.974 58.0986C152.883 58.7735 151.568 58.8646 145.091 58.8529C137.746 58.8396 132.366 58.3271 123.825 56.8271C111.806 54.7166 106.201 54.028 101.074 54.0327C96.0798 54.037 93.9006 54.4497 91.5149 55.8426C89.4393 57.0543 86.8198 60.934 88.5786 60.1914C91.6753 58.8839 91.8059 58.8659 98.0392 58.8956C103.943 58.924 104.707 59.0077 114.281 60.6745C130.999 63.5853 132.256 63.7375 141.239 63.9316C147.943 64.0764 150.024 64.0084 152.613 63.5607C156.797 62.8367 161.257 61.3277 164.321 59.6006C167.596 57.7543 171.913 53.6587 173.993 50.4272C175.699 47.7743 179.269 40.8896 181.399 36.1445C182.427 33.8548 182.681 33.5129 183.058 33.9152C183.316 34.1898 183.736 34.2922 184.056 34.1578C186.156 33.2733 186.162 33.1596 183.759 40.4045C180.717 49.5772 180.158 51.8098 180.731 52.497C181.698 53.6577 184.877 52.6909 186.53 50.7335C187.023 50.1507 187.667 48.6023 188.097 46.9656C188.499 45.4372 188.964 43.8115 189.129 43.3528C189.295 42.894 189.983 40.7225 190.66 38.5269L191.889 34.5351L192.684 35.5243C194.317 37.5577 193.46 42.0977 191.19 43.4372C190.7 43.7258 189.939 44.346 189.497 44.8154C187.395 47.0503 191.755 47.3526 194.949 45.193L196.161 44.3736V45.6274C196.161 47.444 197.426 49.6819 199.112 50.8493C200.33 51.6923 200.943 51.8688 203.022 51.9733C205.28 52.087 206.551 51.8505 209.486 50.7699C209.724 50.6821 209.894 50.7415 209.865 50.9017C209.627 52.2021 210.618 52.3653 212.789 51.3831C214.634 50.5487 215.644 48.7818 217.446 43.2383C218.231 40.8242 218.947 39.074 219.036 39.3493C220.753 44.6225 223.231 49.8044 224.671 51.1309C225.589 51.9776 225.76 52.0246 226.413 51.6109C227.329 51.0314 228.495 48.6777 230.317 43.7364C231.105 41.5989 231.862 39.7259 231.998 39.5745C232.133 39.4233 232.349 39.8561 232.477 40.5363C232.655 41.4778 233.347 42.42 235.376 44.4814C237.46 46.5986 238.021 47.3709 237.947 48.0212C237.834 49.0304 236.404 49.8024 235.204 49.5021C234.163 49.2419 232.663 47.7906 232.663 47.044C232.663 46.2516 232.041 45.7382 231.311 45.9283C230.453 46.1519 229.707 47.3783 229.448 48.993C229.251 50.2187 229.337 50.4476 230.377 51.4842C231.697 52.799 233.383 53.3571 236.046 53.3595C239.309 53.3628 242.051 51.9743 243.36 49.6562C243.982 48.5516 244.099 47.9334 243.984 46.346C243.845 44.433 243.791 44.3406 241.277 41.719C237.431 37.7092 237.451 36.7373 241.427 34.1151C244.463 32.1137 245.126 31.0557 244.982 28.4461C244.923 27.3782 244.785 26.73 244.675 27.0052ZM157.264 35.522C158.785 36.7967 159.443 38.8635 159.253 41.7647C159.073 44.5134 158.306 46.2866 156.59 47.9197C155.25 49.1952 154.039 49.6916 152.269 49.6916C150.834 49.6916 150.78 49.6332 151.306 48.6534C151.676 47.9644 152.262 45.9006 153.987 39.1985C154.552 37.0056 155.088 35.0912 155.179 34.9448C155.481 34.4574 156.247 34.6692 157.264 35.522ZM118.588 41.9349L118.81 43.3528H116.992H115.175L116.402 40.6578L117.63 37.9624L117.998 39.2399C118.2 39.9421 118.465 41.1552 118.588 41.9349Z" fill="black"/>
</svg>
