<svg width="332" height="84" viewBox="0 0 332 84" fill="none" xmlns="http://www.w3.org/2000/svg">
<rect width="332" height="84" fill="white"/>
<path fill-rule="evenodd" clip-rule="evenodd" d="M80.5275 26.0359C74.6579 28.0563 70.663 33.1101 70.107 39.2175C69.9441 41.0081 69.97 42.8876 70.1654 43.3943C70.8094 45.066 72.1584 43.2133 72.1584 40.6582C72.1584 33.6794 77.0186 28.3749 84.381 27.3192C86.4902 27.017 87.3328 26.643 87.4666 25.9503C87.7181 24.6494 84.4382 24.69 80.5275 26.0359ZM94.1751 34.0726C90.0882 36.9749 86.3212 39.8372 85.8038 40.4328C85.0073 41.3503 84.8697 42.7071 84.9044 49.2982C84.927 53.5787 85.173 57.5126 85.4515 58.0402C85.9161 58.9216 87.2998 59 102.392 59C116.87 59 118.866 58.8969 119.16 58.1324C119.636 56.8962 119.559 41.2944 119.073 40.5885C118.5 39.7566 103.429 29.2716 102.431 29.0111C101.977 28.8927 98.2619 31.1703 94.1751 34.0726ZM109.187 35.725C112.888 38.3076 115.973 40.5902 116.043 40.798C116.148 41.1118 103.734 49.6042 102.43 50.111C101.93 50.3051 88.11 41.4644 88.1464 40.9741C88.1772 40.5578 101.422 31.1007 102.031 31.059C102.266 31.0431 105.486 33.1425 109.187 35.725ZM82.198 32.7355C78.7007 34.4604 76.3152 38.4815 76.6597 42.0704C76.9405 44.9936 78.3958 44.4682 78.8537 41.2785C79.0618 39.8268 79.6358 38.0257 80.1285 37.2766C81.2816 35.5232 84.1581 33.7792 85.9188 33.7655C87.678 33.7523 88.9208 32.973 88.4337 32.1882C87.8282 31.2114 84.7382 31.4829 82.198 32.7355ZM181.141 46.1118V57.3547H183.067H184.994V46.1118V34.8689H183.067H181.141V46.1118ZM173.828 35.7568C173.612 35.9724 173.435 36.8477 173.435 37.7027C173.435 39.1538 173.582 39.2564 175.671 39.2564C177.863 39.2564 177.904 39.2208 177.735 37.474C177.587 35.9362 177.334 35.6691 175.892 35.5287C174.973 35.4388 174.044 35.5419 173.828 35.7568ZM133.497 42.8037C132.262 43.7355 131.384 43.8934 131.879 43.0954C132.081 42.7691 131.426 42.547 130.26 42.547H128.301V49.9509V57.3547H130.227H132.154V52.1835C132.154 46.5977 132.715 45.2892 135.11 45.2892C137.279 45.2892 137.658 46.2857 137.658 51.9801V57.3547H139.531H141.405L141.595 52.0996C141.756 47.6639 141.953 46.7239 142.854 46.0668C144.25 45.0511 145.627 45.0813 146.701 46.1508C147.364 46.8127 147.565 48.214 147.565 52.1835V57.3547H149.54H151.516L151.329 51.2759L151.143 45.197L149.345 43.5978C147.079 41.5818 144.405 41.4573 142.291 43.2693L140.809 44.54L139.534 43.2693C138.051 41.7924 135.138 41.568 133.497 42.8037ZM157.59 43.1717C156.595 43.8062 155.418 45.0237 154.976 45.8771C153.82 48.1043 153.955 52.3338 155.249 54.4486C157.307 57.8121 162.036 58.9561 164.829 56.7662C166.031 55.824 166.279 55.7774 166.279 56.492C166.279 57.1123 166.821 57.3547 168.206 57.3547H170.132V49.9509V42.547H168.206C166.821 42.547 166.279 42.7894 166.279 43.4097C166.279 44.1243 166.031 44.0777 164.829 43.1355C162.955 41.6662 159.925 41.6816 157.59 43.1717ZM191.542 43.2528C186.684 46.5116 187.043 54.3663 192.168 56.9423C195.917 58.8272 200.631 57.7073 202.413 54.5083C203.452 52.6426 203.338 52.4188 201.353 52.4188C200.23 52.4188 199.193 52.8329 198.606 53.5157C198.052 54.1617 196.983 54.6125 196.007 54.6125C193.55 54.6125 192.149 52.9201 192.149 49.9509C192.149 48.214 192.475 47.1577 193.25 46.386C194.549 45.0912 197.233 44.9486 198.4 46.1118C198.854 46.5643 200.105 46.9345 201.18 46.9345C203.069 46.9345 203.113 46.8889 202.501 45.5497C200.92 42.0945 195.092 40.8726 191.542 43.2528ZM208.605 43.2435C203.42 46.6954 203.772 54.1584 209.251 56.9423C214.702 59.7119 220.954 55.9765 220.954 49.9509C220.954 43.6395 213.826 39.7681 208.605 43.2435ZM229.061 42.8881C228.12 43.5632 227.655 43.6559 227.502 43.1985C227.382 42.8404 226.438 42.547 225.403 42.547H223.523V49.9509V57.3547H225.449H227.376V53.2771C227.376 47.6255 228.358 45.3193 230.777 45.2974C232.851 45.2787 233.43 46.782 233.43 52.1835V57.3547H235.357H237.283V53.0029C237.283 50.6095 237.522 48.0248 237.814 47.2597C238.518 45.4137 240.816 44.8307 242.259 46.1316C243.183 46.9657 243.338 47.8361 243.338 52.2296V57.3547H245.325H247.312L247.103 51.2676C246.895 45.1987 246.888 45.1756 245.107 43.5896C242.983 41.698 240.566 41.5132 238.039 43.0483C236.517 43.9729 236.225 43.9993 235.501 43.2781C234.198 41.9799 230.629 41.7638 229.061 42.8881ZM251.943 43.1355C250.834 44.0042 250.493 44.7588 250.493 46.3411C250.493 48.7306 251.384 49.7222 254.716 51.0444C257.208 52.0327 258.029 53.2212 257.04 54.408C256.13 55.501 254.462 55.331 253.668 54.0641C252.82 52.7106 249.943 52.5318 249.943 53.8321C249.943 54.3076 250.666 55.4182 251.551 56.3001C253.391 58.1324 256.116 58.4373 258.71 57.1008C262.649 55.071 261.235 49.3311 256.542 48.3045C254.659 47.892 253.554 46.708 253.992 45.5705C254.404 44.4989 256.487 44.4939 256.899 45.5634C257.265 46.5138 260.951 46.725 260.951 45.7954C260.951 45.4707 260.227 44.4835 259.342 43.6016C257.336 41.6031 254.154 41.4024 251.943 43.1355ZM117.293 48.2754V54.0038L113.541 51.4289C111.478 50.0128 109.726 48.6072 109.648 48.3056C109.543 47.8992 116.273 42.7625 117.155 42.5761C117.231 42.5602 117.293 45.1246 117.293 48.2754ZM173.435 49.9509V57.3547H175.361H177.288V49.9509V42.547H175.361H173.435V49.9509ZM91.4296 45.644C93.5448 47.0453 95.2759 48.2485 95.2759 48.3176C95.2759 48.3862 93.4182 49.7222 91.1478 51.2863L87.0197 54.1299V48.6127C87.0197 45.5782 87.1463 43.0954 87.3015 43.0954C87.4567 43.0954 89.3143 44.2422 91.4296 45.644ZM165.138 46.7343C167.521 49.7523 165.76 54.6125 162.285 54.6125C159.76 54.6125 158.023 52.7435 158.023 50.0276C158.023 45.6758 162.623 43.5468 165.138 46.7343ZM215.259 45.8332C216.507 46.499 217.634 49.6772 217.126 51.1009C216.462 52.9628 214.564 54.6131 213.107 54.595C210.334 54.561 208.342 51.8172 208.908 48.8118C209.462 45.8705 212.583 44.4067 215.259 45.8332ZM99.9131 51.1261C101.79 52.3969 102.196 52.4863 103.206 51.8512C107.424 49.2006 106.777 49.1386 112.268 52.7188C115.022 54.5144 117.279 56.2924 117.284 56.6692C117.29 57.2011 113.903 57.3547 102.156 57.3547C93.1034 57.3547 87.0197 57.1479 87.0197 56.8403C87.0197 56.2551 96.3553 49.703 97.2123 49.6871C97.5205 49.6816 98.7358 50.3287 99.9131 51.1261Z" fill="black"/>
</svg>
