<svg width="332" height="84" viewBox="0 0 332 84" fill="none" xmlns="http://www.w3.org/2000/svg">
<rect width="332" height="84" fill="white"/>
<path fill-rule="evenodd" clip-rule="evenodd" d="M141 33.2876V55.5741L147.535 55.5917C151.129 55.6013 154.092 55.5927 154.12 55.5723C154.155 55.5471 154.198 18.377 154.172 11.0855C154.171 11.0185 152.809 11.001 147.586 11.001H141V33.2876ZM156.782 11.0652C156.741 11.1055 156.724 19.3828 156.734 33.3524L156.752 55.5755H163.337H169.922L169.939 33.3524C169.95 19.3828 169.933 11.1055 169.892 11.0652C169.805 10.9783 156.869 10.9783 156.782 11.0652ZM172.534 11.0851C172.516 11.1317 172.509 21.1535 172.519 33.3558L172.536 55.5417L179.138 55.5589L185.739 55.5761L185.776 55.4238C185.796 55.3401 185.804 45.3183 185.794 33.1532L185.776 11.0348L179.171 11.0176C173.923 11.0039 172.56 11.0178 172.534 11.0851ZM141 66.1788V72.9325H142.12C143.139 72.9325 143.241 72.9218 143.247 72.8143C143.251 72.7492 143.261 70.827 143.27 68.5426C143.279 66.2581 143.292 64.3206 143.298 64.2371C143.319 63.9413 143.429 64.0904 143.473 64.4735C143.497 64.6871 143.545 64.9986 143.58 65.1657C143.614 65.3329 143.691 65.7431 143.751 66.0775C143.811 66.4118 143.902 66.8828 143.952 67.1243C144.002 67.3657 144.094 67.8216 144.157 68.1373C144.219 68.4531 144.297 68.833 144.33 68.9815C144.363 69.1301 144.498 69.7987 144.628 70.4674C144.92 71.9543 144.999 72.3573 145.06 72.6623L145.108 72.8987H146.084H147.06L147.176 72.4259C147.24 72.1659 147.33 71.7556 147.375 71.5142C147.42 71.2727 147.498 70.8928 147.547 70.67C147.597 70.4471 147.686 70.0368 147.746 69.7582C147.806 69.4796 147.888 69.0997 147.928 68.914C147.969 68.7283 148.028 68.4396 148.061 68.2724C148.094 68.1053 148.186 67.6798 148.265 67.3269C148.41 66.6784 148.719 65.0607 148.781 64.6254C148.867 64.0228 148.887 63.9488 148.947 63.9859C148.987 64.0103 149.011 65.7234 149.011 68.4317C149.011 71.1161 149.037 72.863 149.076 72.9021C149.113 72.9392 149.628 72.9578 150.297 72.9462L151.454 72.9263L151.472 66.2432C151.482 62.5674 151.479 59.5297 151.467 59.4925C151.453 59.45 150.82 59.4251 149.756 59.4251H148.068L147.965 59.7796C147.908 59.9747 147.645 61.2435 147.379 62.5993C147.114 63.9551 146.855 65.2468 146.803 65.4696C146.705 65.8888 146.449 67.2492 146.39 67.6646C146.306 68.2513 146.286 68.3399 146.237 68.3399C146.208 68.3399 146.133 68.0436 146.069 67.6815C146.005 67.3193 145.922 66.871 145.884 66.6853C145.847 66.4996 145.709 65.8025 145.578 65.1363C145.448 64.4701 145.314 63.8015 145.28 63.6505C145.247 63.4995 145.171 63.1328 145.111 62.8357C145.051 62.5385 144.96 62.0978 144.908 61.8564C144.856 61.6149 144.762 61.1591 144.7 60.8433C144.592 60.2924 144.483 59.7939 144.417 59.5433C144.388 59.4347 144.248 59.4251 142.693 59.4251H141V66.1788ZM155.222 59.5095C155.181 59.6223 154.858 61.127 154.785 61.5525C154.752 61.7382 154.695 62.0269 154.658 62.1941C154.621 62.3612 154.539 62.7563 154.478 63.0721C154.416 63.3878 154.339 63.7525 154.308 63.8825C154.276 64.0125 154.23 64.2556 154.205 64.4228C154.18 64.59 154.133 64.8331 154.101 64.9631C154.069 65.0931 153.992 65.4426 153.931 65.7398C153.871 66.0369 153.78 66.4776 153.73 66.7191C153.681 66.9605 153.589 67.4164 153.527 67.7321C153.464 68.0478 153.383 68.4429 153.345 68.6101C153.308 68.7772 153.249 69.066 153.215 69.2517C153.095 69.8948 152.611 72.2628 152.493 72.7805L152.458 72.9325H153.685H154.912L154.953 72.6792C155.067 71.9826 155.228 71.1096 155.365 70.4489C155.397 70.2955 155.398 70.2953 156.562 70.3138L157.727 70.3323L157.774 70.5349C157.8 70.6463 157.872 71.0414 157.933 71.4129C157.995 71.7843 158.083 72.2706 158.13 72.4935L158.214 72.8987L159.485 72.9171L160.757 72.9354L160.753 72.782C160.748 72.6029 160.682 72.2322 160.521 71.4804C160.377 70.8127 160.23 70.0526 160.144 69.5324C160.108 69.3153 160.06 69.1084 160.038 69.0727C160.016 69.0369 159.973 68.8498 159.943 68.657C159.914 68.464 159.699 67.3792 159.467 66.2463C159.234 65.1134 159.031 64.0952 159.015 63.9838C158.998 63.8724 158.942 63.5837 158.89 63.3422C158.781 62.8384 158.636 62.1278 158.483 61.3499C158.425 61.0527 158.348 60.6728 158.312 60.5057C158.276 60.3385 158.227 60.065 158.203 59.8978C158.178 59.7307 158.128 59.5559 158.092 59.5095C158.042 59.4469 157.667 59.4251 156.639 59.4251C155.592 59.4251 155.246 59.4457 155.222 59.5095ZM161.875 59.5095C161.857 59.5559 161.85 62.5875 161.86 66.2463L161.877 72.8987L163.11 72.9171L164.342 72.9354L164.381 72.6131C164.403 72.4359 164.417 71.607 164.413 70.7713L164.405 69.2517L164.644 68.7452C164.775 68.4666 164.948 68.0942 165.028 67.9178C165.108 67.7414 165.199 67.597 165.229 67.597C165.324 67.597 165.48 68.0166 166.312 70.5011L167.115 72.8987L168.454 72.917L169.793 72.9354L169.747 72.6806C169.722 72.5405 169.678 72.3955 169.649 72.3584C169.621 72.3213 169.567 72.1845 169.529 72.0545C169.492 71.9245 169.364 71.5598 169.246 71.244C169.127 70.9283 168.999 70.5636 168.96 70.4336C168.922 70.3036 168.867 70.1668 168.838 70.1297C168.81 70.0925 168.77 69.9862 168.749 69.8933C168.728 69.8004 168.665 69.6029 168.608 69.4543C168.552 69.3057 168.364 68.7891 168.191 68.3062C168.018 67.8233 167.831 67.3066 167.777 67.158C167.601 66.6786 167.127 65.3381 167.091 65.2166C167.071 65.1517 167.102 64.9998 167.159 64.8789C167.275 64.6334 167.622 63.889 167.954 63.1734C168.325 62.3719 169.227 60.4782 169.518 59.8861C169.622 59.6754 169.689 59.4855 169.668 59.464C169.646 59.4426 169.055 59.4251 168.354 59.4251C167.092 59.4251 167.08 59.4265 167.033 59.577C167.007 59.6606 166.902 59.9113 166.798 60.1342C166.694 60.3571 166.375 61.0713 166.089 61.7213C165.802 62.3714 165.506 63.04 165.431 63.2071C165.355 63.3743 165.267 63.5718 165.236 63.6461C164.734 64.8115 164.49 65.3083 164.435 65.2745C164.408 65.2574 164.393 63.9881 164.404 62.454C164.414 60.9199 164.405 59.6108 164.384 59.5449C164.35 59.436 164.235 59.4251 163.126 59.4251C162.213 59.4251 161.899 59.4463 161.875 59.5095ZM170.843 59.5395C170.794 59.6687 170.805 72.7172 170.855 72.848C170.881 72.914 171.594 72.9325 174.105 72.9325H177.323L177.325 72.7805C177.34 71.7476 177.322 70.7476 177.287 70.7131C177.263 70.6894 176.383 70.6655 175.331 70.66L173.419 70.65L173.401 68.7859L173.383 66.9217H174.707C176.266 66.9217 176.117 67.0421 176.087 65.8073L176.067 64.9969L174.743 64.9631L173.419 64.9293L173.401 63.2926L173.383 61.6559L175.336 61.6379L177.289 61.62L177.323 60.607C177.342 60.0498 177.346 59.5559 177.333 59.5095C177.314 59.4435 176.608 59.4251 174.098 59.4251C171.143 59.4251 170.884 59.4342 170.843 59.5395ZM178.398 59.4925C178.385 59.5297 178.383 62.5695 178.393 66.2477L178.41 72.9354L179.683 72.9171L180.955 72.8987L180.973 70.2032C180.983 68.6173 181.017 67.4757 181.056 67.43C181.095 67.3833 181.376 67.3469 181.758 67.3389C182.65 67.3203 182.933 67.4516 183.185 68.0023C183.273 68.1964 183.296 68.571 183.312 70.0959L183.331 71.9532L183.542 72.3246C183.68 72.5671 183.845 72.7488 184.017 72.8479C184.262 72.9883 184.354 72.9985 185.232 72.983L186.183 72.9662L186.204 72.5703C186.218 72.2984 186.194 72.1397 186.127 72.0638C185.833 71.7292 185.81 71.579 185.808 69.9811C185.807 68.2876 185.732 67.7235 185.449 67.2826C185.196 66.8886 185.051 66.7461 184.738 66.5837C184.581 66.5021 184.452 66.4087 184.452 66.3761C184.452 66.3436 184.536 66.2652 184.638 66.2021C184.948 66.0113 185.338 65.6192 185.47 65.3662C185.538 65.235 185.627 64.9483 185.668 64.7291C185.768 64.1912 185.755 62.3425 185.648 61.7451C185.443 60.6111 184.812 59.9098 183.676 59.5553C183.303 59.4391 183.032 59.4267 180.842 59.4259C179.288 59.4254 178.412 59.4492 178.398 59.4925ZM182.772 61.6428C183.154 61.8929 183.157 61.9095 183.16 63.4671L183.162 64.9091L182.937 65.1326C182.674 65.3939 182.387 65.4548 181.566 65.4231L181.023 65.4021L181.005 63.5458C180.995 62.5248 181.002 61.651 181.02 61.6041C181.044 61.5422 181.264 61.5188 181.819 61.5192C182.446 61.5195 182.619 61.5419 182.772 61.6428ZM156.782 64.3372C156.846 64.7743 156.926 65.2383 156.96 65.3683C156.994 65.4983 157.052 65.8326 157.088 66.1112C157.125 66.3898 157.204 66.9217 157.265 67.2931C157.325 67.6646 157.38 68.0293 157.386 68.1036C157.396 68.2305 157.349 68.2398 156.607 68.2576C155.995 68.2723 155.809 68.2561 155.782 68.186C155.763 68.1362 155.787 67.8997 155.835 67.6605C155.884 67.4213 155.974 66.9369 156.035 66.584C156.096 66.2311 156.174 65.7904 156.207 65.6047C156.419 64.4329 156.479 64.0839 156.515 63.7968C156.538 63.6197 156.581 63.49 156.612 63.5086C156.642 63.5273 156.719 63.9002 156.782 64.3372ZM188.746 69.8653C188.448 69.9947 188.009 70.4418 187.882 70.7442C187.74 71.0816 187.752 71.6884 187.908 72.0207C188.163 72.5669 188.824 73 189.404 73C189.943 73 190.588 72.5969 190.85 72.0966C191.043 71.7279 191.052 70.9637 190.866 70.6675C190.662 70.3403 190.341 70.0251 190.073 69.8874C189.77 69.732 189.079 69.7205 188.746 69.8653ZM189.67 70.0995C190.254 70.2335 190.698 70.7741 190.698 71.3524C190.698 71.7016 190.456 72.1653 190.145 72.4109C189.787 72.6946 189.22 72.7367 188.797 72.511C188.331 72.2625 188.123 71.9161 188.12 71.3862C188.118 71.032 188.151 70.903 188.299 70.6694C188.506 70.3446 188.87 70.1235 189.34 70.0378C189.359 70.0344 189.507 70.0622 189.67 70.0995ZM188.717 70.5856C188.703 70.632 188.697 70.9435 188.703 71.2778C188.724 72.2634 188.711 72.2014 188.882 72.1774C189.011 72.1591 189.04 72.1043 189.068 71.8234C189.087 71.6405 189.137 71.4796 189.179 71.4658C189.221 71.4521 189.357 71.5713 189.48 71.7307C189.769 72.1068 189.875 72.1896 190.066 72.1896C190.273 72.1896 190.261 72.0762 190.019 71.7579C189.909 71.6134 189.839 71.4614 189.864 71.4202C189.888 71.379 189.966 71.2663 190.037 71.1698C190.156 71.007 190.158 70.9764 190.062 70.7477L189.958 70.5011H189.351C188.924 70.5011 188.736 70.5263 188.717 70.5856ZM189.572 70.8123C189.631 70.8348 189.679 70.9076 189.679 70.9739C189.679 71.1067 189.55 71.1765 189.305 71.1765C189.112 71.1765 189.045 71.0869 189.103 70.9057C189.146 70.7703 189.354 70.7289 189.572 70.8123Z" fill="black"/>
</svg>
