<svg width="332" height="84" viewBox="0 0 332 84" fill="none" xmlns="http://www.w3.org/2000/svg">
<rect width="332" height="84" fill="white"/>
<path fill-rule="evenodd" clip-rule="evenodd" d="M140.919 21.0108C140.88 27.0668 140.88 38.4279 140.919 46.2576L140.989 60.4936L166.187 60.469L191.386 60.4445L191.41 35.2222L191.435 10H166.212H140.988L140.919 21.0108ZM164.954 28.545C164.994 44.3322 164.999 44.6784 165.199 45.9204C165.311 46.6173 165.431 47.385 165.465 47.6262L165.527 48.0649L165.12 47.3338C164.165 45.6214 163.487 44.5553 162.603 43.3747C162.086 42.6839 158.377 37.7761 154.362 32.4685C150.346 27.1609 146.214 21.6983 145.179 20.3295L143.296 17.8407V15.1388V12.4369H154.105H164.914L164.954 28.545ZM188.998 15.101V17.765L182.017 26.9688C167.365 46.2855 168.715 44.4465 167.534 46.7002C167.009 47.7023 166.786 48.0538 166.824 47.8171C166.854 47.6272 166.988 46.7499 167.121 45.8675L167.362 44.2633L167.364 28.3501L167.365 12.4369H178.182H188.998V15.101ZM188.998 31.6165V41.3408L186.05 42.2975C184.429 42.8238 180.713 44.0235 177.792 44.9635C172.064 46.8071 170.567 47.3498 168.96 48.1667L167.923 48.6937L169.425 47.1608C170.459 46.1046 171.35 45.066 172.288 43.8209C175.256 39.8842 188.942 21.8922 188.969 21.8922C188.985 21.8922 188.998 26.2682 188.998 31.6165ZM148.026 28.1308C150.481 31.3743 153.236 35.0151 154.149 36.2214C161.182 45.5192 161.563 46.0015 162.755 47.1138C163.388 47.7044 164.037 48.3031 164.198 48.4443C164.446 48.6622 164.343 48.6326 163.516 48.2481C161.606 47.3603 159.939 46.7574 154.795 45.0929C151.927 44.1652 148.2 42.9587 146.512 42.4119L143.442 41.4176L143.418 31.7325C143.403 26.2242 143.429 22.0874 143.478 22.1403C143.524 22.1915 145.571 24.8872 148.026 28.1308ZM188.998 50.0144C188.998 54.4504 188.968 56.1067 188.889 56.1067C188.829 56.1067 184.705 54.7889 179.725 53.1784C174.745 51.5678 170.442 50.211 170.163 50.1633C169.884 50.1155 169.261 50.0445 168.778 50.0055L167.901 49.9347L169.412 49.717C172.419 49.2836 171.772 49.4721 185.393 45.0569C187.295 44.4402 188.885 43.9325 188.925 43.9288C188.965 43.9251 188.998 46.6636 188.998 50.0144ZM148.877 45.7381C160.316 49.4582 159.894 49.3388 163.273 49.8078C164.28 49.9476 164.22 50.0106 162.984 50.1083C161.953 50.1898 161.768 50.244 154.795 52.4996C144.145 55.9446 143.635 56.1067 143.463 56.1067C143.307 56.1067 143.296 55.7059 143.296 50.0631C143.296 44.714 143.313 44.0196 143.445 44.0196C143.526 44.0196 145.971 44.7928 148.877 45.7381ZM164.97 53.3826C165.008 54.2969 165.008 55.7225 164.97 56.5507L164.901 58.0563L155.244 58.0486C149.932 58.0444 145.652 58.0141 145.732 57.9813C145.923 57.9036 164.765 51.7377 164.842 51.7278C164.874 51.7237 164.932 52.4683 164.97 53.3826ZM177.048 54.8233C182.28 56.5299 186.591 57.9555 186.627 57.9913C186.663 58.027 182.343 58.0563 177.029 58.0563H167.365V54.8883C167.365 53.1459 167.403 51.7203 167.449 51.7203C167.496 51.7203 171.815 53.1166 177.048 54.8233ZM124.025 70.704L124.051 74.8711L124.952 74.8992L125.854 74.9272V72.3341V69.7409L127.13 71.3312C127.833 72.2059 128.471 73.0093 128.548 73.1165C128.686 73.3074 128.694 73.3053 128.903 73.0197C129.021 72.8592 129.644 72.0506 130.287 71.2228L131.457 69.7177L131.505 72.2944L131.554 74.8711H132.48H133.406L133.431 70.704L133.456 66.5368L132.457 66.5379L131.457 66.5389L130.102 68.3442C129.356 69.3372 128.711 70.1372 128.668 70.1222C128.579 70.0915 127.384 68.5673 126.487 67.342L125.902 66.5432L124.951 66.54L124 66.5368L124.025 70.704ZM134.842 70.704L134.867 74.8711L138.594 74.8967L142.322 74.9222V74.0437V73.1653H139.545H136.767V72.3367V71.5081H139.447H142.127V70.6811V69.8541L139.472 69.8282L136.816 69.8023V69.0225V68.2427L139.569 68.2167L142.322 68.1909V67.3638V66.5368H138.569H134.816L134.842 70.704ZM143.686 70.6642C143.686 74.347 143.703 74.808 143.84 74.8607C143.925 74.8932 144.363 74.9198 144.815 74.9198H145.635V73.5552V72.1905L146.877 72.1941L148.12 72.1977L149.046 73.5564L149.971 74.9152L151.029 74.9175C151.893 74.9195 152.078 74.895 152.035 74.7844C152.007 74.7099 151.585 74.0954 151.099 73.4189C150.613 72.7425 150.215 72.1535 150.215 72.1103C150.215 72.0671 150.363 71.9608 150.545 71.8744C151.055 71.6308 151.512 71.1819 151.777 70.6643C151.978 70.2706 152.017 70.0546 152.016 69.3636C152.015 68.6574 151.977 68.4632 151.757 68.0477C151.453 67.4714 151.106 67.13 150.507 66.8156C150.076 66.5894 150.014 66.5851 146.877 66.5562L143.686 66.527V70.6642ZM153.454 70.704L153.479 74.8711L154.429 74.899L155.379 74.9269V73.5557V72.1846L156.612 72.2119L157.844 72.2392L158.769 73.5795L159.693 74.9198H160.752C161.334 74.9198 161.811 74.8999 161.811 74.8754C161.811 74.8509 161.369 74.2107 160.829 73.4527C160.29 72.6946 159.862 72.0634 159.879 72.0499C159.897 72.0365 160.143 71.9009 160.427 71.7486C162.5 70.6376 162.114 67.361 159.829 66.6824C159.442 66.5672 158.722 66.5368 156.384 66.5368H153.429L153.454 70.704ZM162.136 67.146C162.374 67.4812 163.165 68.6085 163.895 69.6512L165.221 71.5471V73.237V74.9269L166.172 74.899L167.122 74.8711L167.17 73.1653L167.219 71.4594L168.492 69.6073C169.193 68.5887 169.951 67.4812 170.177 67.146L170.588 66.5368H169.535H168.482L167.352 68.0483L166.222 69.5598L165.068 68.0483L163.914 66.5368H162.809H161.704L162.136 67.146ZM179.529 68.9981C179.499 71.3241 179.485 71.4861 179.273 71.9456C178.982 72.5782 178.735 72.8316 178.216 73.03C177.676 73.2361 176.723 73.1726 176.177 72.894C175.962 72.7841 175.599 72.4921 175.371 72.2448L174.957 71.7953L174.182 72.1988L173.407 72.6022L173.626 72.9939C174.123 73.8805 175.513 74.7434 176.758 74.9369C178.562 75.2174 180.107 74.5496 180.8 73.1898C181.241 72.3261 181.318 71.7724 181.37 69.0956L181.42 66.5368H180.49H179.561L179.529 68.9981ZM184.525 66.9476C184.425 67.1773 183.615 69.0237 182.724 71.0506C181.834 73.0775 181.105 74.7788 181.105 74.8311C181.105 74.889 181.516 74.9156 182.152 74.8988L183.2 74.8711L183.492 74.1667L183.785 73.4624L185.64 73.46L187.495 73.4577L187.799 74.1644L188.103 74.8711L189.184 74.8987C189.779 74.9138 190.265 74.9083 190.265 74.8865C190.265 74.8646 189.439 72.9879 188.43 70.7161L186.595 66.5855L185.651 66.5577L184.707 66.5297L184.525 66.9476ZM190.97 70.704L190.996 74.8711L191.946 74.899L192.896 74.9269V72.4864C192.896 70.2638 192.941 69.8213 193.133 70.1329C193.163 70.1808 194.28 71.2774 195.616 72.5699L198.044 74.9198H198.686H199.327V70.7283V66.5368H198.353H197.378L197.378 69.0468L197.377 71.5569L194.873 69.0468L192.368 66.5368H191.656H190.945L190.97 70.704ZM200.52 70.704L200.545 74.8711L204.273 74.8967L208 74.9222V74.0437V73.1653H205.219H202.438L202.466 72.3611L202.494 71.5569L205.15 71.531L207.805 71.505V70.678V69.851H205.174H202.543V69.0225V68.1939H205.272H208V67.3654V66.5368H204.247H200.495L200.52 70.704ZM149.439 68.4132C149.783 68.5868 149.902 68.7154 150.011 69.0287C150.179 69.5162 150.104 69.851 149.734 70.2661L149.452 70.5821L147.543 70.6139L145.635 70.6458V69.4198V68.1939H147.32C148.873 68.1939 149.038 68.211 149.439 68.4132ZM159.084 68.3522C159.549 68.5383 159.789 68.9289 159.782 69.486C159.779 69.6956 159.705 69.9767 159.617 70.1108C159.327 70.5528 158.948 70.6308 157.088 70.6308H155.379V69.4124V68.1939H157.034C158.334 68.1939 158.773 68.2278 159.084 68.3522ZM186.212 70.4503C186.512 71.1284 186.757 71.7096 186.757 71.7419C186.757 71.7742 186.248 71.8006 185.626 71.8006C184.602 71.8006 184.501 71.7849 184.558 71.6352C184.745 71.1487 185.623 69.1719 185.643 69.1929C185.656 69.2064 185.912 69.7723 186.212 70.4503Z" fill="black"/>
</svg>
