<svg width="332" height="84" viewBox="0 0 332 84" fill="none" xmlns="http://www.w3.org/2000/svg">
<rect width="332" height="84" fill="white"/>
<g clip-path="url(#clip0_111_749)">
<path fill-rule="evenodd" clip-rule="evenodd" d="M184.112 25.241C183.997 25.3693 183.903 25.5525 183.903 25.6483C183.903 25.7441 182.322 27.3722 180.39 29.2665C178.457 31.1608 176.876 32.7871 176.876 32.8806C176.876 32.9741 175.295 34.6004 173.362 36.4947C171.43 38.389 169.848 40.0154 169.848 40.1088C169.848 40.2023 168.267 41.8287 166.335 43.723C164.402 45.6172 162.821 47.2444 162.821 47.3387C162.821 47.433 161.835 48.4745 160.63 49.6529C159.424 50.8313 158.478 51.8342 158.526 51.8816C158.574 51.929 159.897 50.7041 161.467 49.1596C163.036 47.615 164.398 46.3514 164.493 46.3514C164.589 46.3514 166.321 44.725 168.342 42.7373C170.364 40.7495 172.096 39.1232 172.191 39.1232C172.286 39.1232 174.018 37.4968 176.039 35.5091C178.061 33.5213 179.792 31.8949 179.886 31.8949C180.054 31.8949 186.58 25.5699 186.58 25.407C186.58 25.3613 186.43 25.3238 186.246 25.3238C186.062 25.3238 185.911 25.2499 185.911 25.1596C185.911 24.9034 184.352 24.9739 184.112 25.241ZM180.892 25.4881C180.892 25.5785 180.666 25.6524 180.39 25.6524C180.113 25.6524 179.888 25.7263 179.888 25.8167C179.888 25.907 179.754 25.9809 179.59 25.9809C179.426 25.9809 179.184 26.1288 179.051 26.3095C178.918 26.4902 178.713 26.6381 178.594 26.6381C178.338 26.6381 174.868 30.0062 174.868 30.2541C174.868 30.3478 173.739 31.5296 172.358 32.8806C170.978 34.2316 169.848 35.4146 169.848 35.5094C169.848 35.6042 168.794 36.7129 167.506 37.9732C166.218 39.2336 165.163 40.3441 165.163 40.4412C165.163 40.5381 164.628 41.1357 163.974 41.7692C163.32 42.4025 162.825 42.9605 162.875 43.0093C162.924 43.058 163.947 42.1296 165.147 40.9462C166.347 39.7629 167.409 38.7946 167.505 38.7946C167.602 38.7946 168.882 37.6118 170.35 36.1662C171.819 34.7205 173.099 33.5377 173.195 33.5377C173.291 33.5377 174.571 32.3549 176.039 30.9093C177.507 29.4636 178.787 28.2808 178.882 28.2808C179.054 28.2808 181.895 25.5717 181.895 25.4083C181.895 25.3618 181.67 25.3238 181.393 25.3238C181.117 25.3238 180.892 25.3978 180.892 25.4881ZM187.292 26.7282C186.9 27.1261 186.58 27.5284 186.58 27.6221C186.58 27.7157 184.547 29.7864 182.063 32.2235C179.578 34.6606 177.545 36.7305 177.545 36.8233C177.545 36.9159 175.437 39.0598 172.86 41.5873C170.283 44.1149 168.175 46.2587 168.175 46.3514C168.175 46.4441 166.067 48.5879 163.49 51.1155C160.913 53.643 158.805 55.7874 158.805 55.8807C158.805 55.974 157.443 57.385 155.778 59.0161C154.113 60.6473 152.79 62.0202 152.837 62.0672C152.885 62.114 154.434 60.6671 156.28 58.8516C158.126 57.0364 159.713 55.551 159.808 55.551C159.903 55.551 162.162 53.4071 164.829 50.7869C167.495 48.1667 169.754 46.0228 169.848 46.0228C169.943 46.0228 172.126 43.9529 174.701 41.4231C177.275 38.8932 179.459 36.8233 179.553 36.8233C179.647 36.8233 181.831 34.7534 184.405 32.2235C186.98 29.6936 189.2 27.6237 189.339 27.6237C189.478 27.6237 189.592 27.5096 189.592 27.3699C189.592 27.0412 188.847 26.3095 188.512 26.3095C188.37 26.3095 188.254 26.2356 188.254 26.1452C188.254 25.8485 188.013 25.9944 187.292 26.7282ZM189.969 28.6956C189.762 28.9128 189.592 29.1679 189.592 29.2627C189.592 29.3575 187.484 31.503 184.907 34.0306C182.33 36.5581 180.222 38.702 180.222 38.7946C180.222 38.8874 178.189 40.9573 175.705 43.3944C173.22 45.8315 171.187 47.9014 171.187 47.9942C171.187 48.0868 169.079 50.2307 166.502 52.7582C163.925 55.2858 161.817 57.43 161.817 57.5231C161.817 57.6163 160.304 59.1751 158.455 60.9872C156.606 62.7994 155.132 64.3204 155.18 64.3673C155.228 64.4141 156.702 63.041 158.455 61.316C160.209 59.5909 161.721 58.1794 161.816 58.1794C161.911 58.1794 164.095 56.1095 166.669 53.5796C169.244 51.0497 171.427 48.9798 171.522 48.9798C171.616 48.9798 173.799 46.9099 176.374 44.3801C178.948 41.8502 181.132 39.7803 181.226 39.7803C181.321 39.7803 183.504 37.7104 186.078 35.1805C188.653 32.6506 190.839 30.5807 190.936 30.5807C191.234 30.5807 192.033 29.7094 191.804 29.6346C191.692 29.5979 191.6 29.4595 191.6 29.3275C191.6 29.025 190.851 28.2774 190.562 28.2909C190.443 28.2964 190.176 28.4786 189.969 28.6956ZM188.797 34.7823C186.842 36.717 185.242 38.3755 185.242 38.468C185.242 38.5604 183.661 40.1859 181.728 42.0802C179.796 43.9745 178.214 45.6008 178.214 45.6943C178.214 45.7878 176.633 47.4141 174.701 49.3084C172.768 51.2027 171.187 52.8294 171.187 52.9232C171.187 53.017 169.9 54.3542 168.327 55.895C166.754 57.4356 165.506 58.7348 165.554 58.7823C165.603 58.8296 166.624 57.9003 167.824 56.7168C169.024 55.5335 170.085 54.5653 170.181 54.5653C170.277 54.5653 172.01 52.9389 174.031 50.9512C176.053 48.9634 177.785 47.3371 177.88 47.3371C177.975 47.3371 179.631 45.7846 181.561 43.8872C183.49 41.9898 185.146 40.4374 185.24 40.4374C185.334 40.4374 187.105 38.7744 189.175 36.742C192.65 33.3299 192.939 33.0025 192.939 32.4707C192.939 32.154 192.863 31.8949 192.771 31.8949C192.679 31.8949 192.604 31.7471 192.604 31.5664C192.604 31.3857 192.548 31.2439 192.478 31.2511C192.409 31.2585 190.753 32.8476 188.797 34.7823ZM39.3386 35.3448C39.3386 35.4351 39.2223 35.5091 39.0801 35.5091C38.9378 35.5091 38.6367 35.6906 38.4108 35.9124L38 36.3155V42.2445V48.1734L38.4108 48.5765C38.6367 48.7983 38.9378 48.9798 39.0801 48.9798C39.2223 48.9798 39.3386 49.0538 39.3386 49.1441C39.3386 49.2345 39.715 49.3084 40.1752 49.3084C40.6353 49.3084 41.0118 49.2345 41.0118 49.1441C41.0118 49.0538 41.1281 48.9798 41.2703 48.9798C41.4125 48.9798 41.7137 48.7983 41.9396 48.5765L42.3503 48.1734V42.2445V36.3155L41.9396 35.9124C41.7137 35.6906 41.4125 35.5091 41.2703 35.5091C41.1281 35.5091 41.0118 35.4351 41.0118 35.3448C41.0118 35.2544 40.6353 35.1805 40.1752 35.1805C39.715 35.1805 39.3386 35.2544 39.3386 35.3448ZM115.302 35.3448C115.302 35.4351 115.186 35.5091 115.043 35.5091C114.901 35.5091 114.6 35.6906 114.374 35.9124L113.963 36.3155V42.2445V48.1734L114.374 48.5765C114.6 48.7983 114.901 48.9798 115.043 48.9798C115.186 48.9798 115.302 49.0538 115.302 49.1441C115.302 49.2345 115.678 49.3084 116.139 49.3084C116.599 49.3084 116.975 49.2345 116.975 49.1441C116.975 49.0538 117.093 48.9798 117.238 48.9798C117.576 48.9798 117.979 48.5843 117.979 48.2523C117.979 48.1103 118.054 47.9942 118.146 47.9942C118.252 47.9942 118.314 46.9224 118.314 45.1077C118.314 41.7465 118.316 41.7516 116.903 41.7516C116.083 41.7516 115.971 41.7909 115.971 42.0802C115.971 42.2609 116.047 42.4087 116.139 42.4087C116.231 42.4087 116.306 42.5566 116.306 42.7373C116.306 42.9563 116.417 43.0658 116.641 43.0658C116.959 43.0658 116.975 43.1754 116.975 45.2953C116.975 47.6732 116.876 47.9942 116.139 47.9942C115.316 47.9942 115.302 47.8958 115.302 42.2445C115.302 36.5931 115.316 36.4947 116.139 36.4947C116.827 36.4947 116.975 36.8558 116.975 38.5365C116.975 39.9993 116.998 40.1088 117.31 40.1088C117.494 40.1088 117.644 40.0349 117.644 39.9446C117.644 39.8542 117.795 39.7803 117.979 39.7803C118.291 39.7803 118.314 39.6707 118.314 38.1375C118.314 37.1518 118.247 36.4947 118.146 36.4947C118.054 36.4947 117.979 36.3786 117.979 36.2366C117.979 35.9046 117.576 35.5091 117.238 35.5091C117.093 35.5091 116.975 35.4351 116.975 35.3448C116.975 35.2544 116.599 35.1805 116.139 35.1805C115.678 35.1805 115.302 35.2544 115.302 35.3448ZM212.682 35.3448C212.682 35.4351 212.566 35.5091 212.424 35.5091C212.282 35.5091 211.98 35.6906 211.755 35.9124L211.344 36.3155V42.2445V48.1734L211.755 48.5765C211.98 48.7983 212.282 48.9798 212.424 48.9798C212.566 48.9798 212.682 49.0538 212.682 49.1441C212.682 49.2345 213.059 49.3084 213.519 49.3084C213.979 49.3084 214.356 49.2345 214.356 49.1441C214.356 49.0538 214.472 48.9798 214.614 48.9798C214.756 48.9798 215.057 48.7983 215.283 48.5765C215.672 48.1951 215.694 48.0714 215.694 46.2767C215.694 44.4896 215.675 44.3801 215.359 44.3801C215.175 44.3801 215.025 44.454 215.025 44.5443C215.025 44.6347 214.874 44.7086 214.69 44.7086C214.382 44.7086 214.356 44.8182 214.356 46.1166C214.356 47.6242 214.191 47.9942 213.519 47.9942C212.697 47.9942 212.682 47.8958 212.682 42.2445C212.682 36.5931 212.697 36.4947 213.519 36.4947C214.208 36.4947 214.356 36.8558 214.356 38.5365C214.356 39.9993 214.379 40.1088 214.69 40.1088C214.874 40.1088 215.025 40.0349 215.025 39.9446C215.025 39.8542 215.175 39.7803 215.359 39.7803C215.673 39.7803 215.694 39.6707 215.694 38.048C215.694 36.4275 215.668 36.2894 215.283 35.9124C215.057 35.6906 214.756 35.5091 214.614 35.5091C214.472 35.5091 214.356 35.4351 214.356 35.3448C214.356 35.2544 213.979 35.1805 213.519 35.1805C213.059 35.1805 212.682 35.2544 212.682 35.3448ZM232.092 35.3448C232.092 35.4351 231.975 35.5091 231.833 35.5091C231.691 35.5091 231.39 35.6906 231.164 35.9124L230.753 36.3155V42.2445V48.1734L231.164 48.5765C231.39 48.7983 231.691 48.9798 231.833 48.9798C231.975 48.9798 232.092 49.0538 232.092 49.1441C232.092 49.2345 232.468 49.3084 232.928 49.3084C233.388 49.3084 233.765 49.2345 233.765 49.1441C233.765 49.0538 233.881 48.9798 234.023 48.9798C234.165 48.9798 234.467 48.7983 234.693 48.5765L235.103 48.1734V42.2445V36.3155L234.693 35.9124C234.467 35.6906 234.165 35.5091 234.023 35.5091C233.881 35.5091 233.765 35.4351 233.765 35.3448C233.765 35.2544 233.388 35.1805 232.928 35.1805C232.468 35.1805 232.092 35.2544 232.092 35.3448ZM57.4092 42.2445V48.9798H58.0784H58.7477V46.0228V43.0658H59.3452C60.3704 43.0658 60.4209 43.2157 60.4209 46.2576V48.9798H61.0902H61.7595V45.8586C61.7595 43.8872 61.6979 42.7373 61.5922 42.7373C61.5001 42.7373 61.4248 42.5894 61.4248 42.4087C61.4248 42.228 61.5001 42.0802 61.5922 42.0802C61.6969 42.0802 61.7595 41.0653 61.7595 39.3642V36.648L61.1794 36.0786L60.5994 35.5091H59.0042H57.4092V42.2445ZM77.8222 36.3305C77.8222 36.7822 77.7469 37.1518 77.6549 37.1518C77.5594 37.1518 77.4876 37.6447 77.4876 38.3018C77.4876 38.9589 77.4158 39.4517 77.3203 39.4517C77.2247 39.4517 77.1529 39.9446 77.1529 40.6017C77.1529 41.2588 77.0812 41.7516 76.9856 41.7516C76.8926 41.7516 76.8183 42.1897 76.8183 42.7373C76.8183 43.2848 76.744 43.723 76.651 43.723C76.5554 43.723 76.4837 44.2158 76.4837 44.8729C76.4837 45.53 76.4119 46.0228 76.3163 46.0228C76.2233 46.0228 76.149 46.461 76.149 47.0085C76.149 47.556 76.0747 47.9942 75.9817 47.9942C75.8897 47.9942 75.8144 48.216 75.8144 48.487C75.8144 48.9688 75.833 48.9798 76.651 48.9798H77.4876V47.8299C77.4876 47.1728 77.5594 46.68 77.6549 46.68C77.7525 46.68 77.8222 46.1324 77.8222 45.3657C77.8222 44.599 77.892 44.0515 77.9895 44.0515C78.0851 44.0515 78.1569 43.5587 78.1569 42.9016C78.1569 42.2445 78.2286 41.7516 78.3242 41.7516C78.4162 41.7516 78.4915 41.4559 78.4915 41.0945C78.4915 40.7331 78.5668 40.4374 78.6588 40.4374C78.7519 40.4374 78.8261 40.8755 78.8261 41.4231C78.8261 41.9706 78.9004 42.4087 78.9935 42.4087C79.089 42.4087 79.1608 42.9016 79.1608 43.5587C79.1608 44.2158 79.2326 44.7086 79.3281 44.7086C79.4257 44.7086 79.4954 45.2562 79.4954 46.0228C79.4954 46.7895 79.5652 47.3371 79.6627 47.3371C79.7548 47.3371 79.8301 47.7067 79.8301 48.1585V48.9798H80.6667C81.1268 48.9798 81.5033 48.9059 81.5033 48.8156C81.5033 48.7252 81.428 48.6513 81.3359 48.6513C81.2404 48.6513 81.1686 48.1585 81.1686 47.5013C81.1686 46.8442 81.0968 46.3514 81.0013 46.3514C80.9083 46.3514 80.834 45.9133 80.834 45.3657C80.834 44.8182 80.7597 44.3801 80.6667 44.3801C80.5711 44.3801 80.4993 43.8872 80.4993 43.2301C80.4993 42.573 80.4276 42.0802 80.332 42.0802C80.239 42.0802 80.1647 41.642 80.1647 41.0945C80.1647 40.547 80.0904 40.1088 79.9974 40.1088C79.9018 40.1088 79.8301 39.616 79.8301 38.9589C79.8301 38.3018 79.7583 37.809 79.6627 37.809C79.5707 37.809 79.4954 37.3971 79.4954 36.8938C79.4954 35.8105 79.2612 35.5091 78.4197 35.5091H77.8222V36.3305ZM94.2196 42.2445V48.9798H94.8889H95.5582V45.53C95.5582 43.3397 95.6192 42.0802 95.7255 42.0802C95.8175 42.0802 95.8928 42.4498 95.8928 42.9016C95.8928 43.3533 95.9681 43.723 96.0601 43.723C96.1522 43.723 96.2275 44.0187 96.2275 44.3801C96.2275 44.7415 96.3027 45.0372 96.3948 45.0372C96.4868 45.0372 96.5621 45.4068 96.5621 45.8586C96.5621 46.3103 96.6374 46.68 96.7294 46.68C96.8214 46.68 96.8967 46.9757 96.8967 47.3371C96.8967 47.6985 96.972 47.9942 97.0641 47.9942C97.1561 47.9942 97.2314 48.1103 97.2314 48.2523C97.2314 48.6401 97.6555 48.9798 98.1398 48.9798H98.5699V42.2445V35.5091H97.9007H97.2314V38.9589C97.2314 41.1492 97.1703 42.4087 97.0641 42.4087C96.972 42.4087 96.8967 42.0391 96.8967 41.5873C96.8967 41.1356 96.8214 40.766 96.7294 40.766C96.6374 40.766 96.5621 40.3963 96.5621 39.9446C96.5621 39.4928 96.4868 39.1232 96.3948 39.1232C96.3027 39.1232 96.2275 38.8275 96.2275 38.4661C96.2275 38.1047 96.1522 37.809 96.0601 37.809C95.9681 37.809 95.8928 37.4393 95.8928 36.9876C95.8928 36.5358 95.8175 36.1662 95.7255 36.1662C95.6335 36.1662 95.5582 36.0183 95.5582 35.8376C95.5582 35.5638 95.4466 35.5091 94.8889 35.5091H94.2196V42.2445ZM134.042 42.2445V48.9798H135.811C137.74 48.9798 138.058 48.8537 138.058 48.088C138.058 47.6696 138.045 47.6656 136.719 47.6656H135.38V45.0372V42.4087H136.217C136.942 42.4087 137.054 42.3649 137.054 42.0802C137.054 41.8995 137.129 41.7516 137.221 41.7516C137.313 41.7516 137.388 41.6038 137.388 41.4231C137.388 41.131 137.277 41.0945 136.384 41.0945H135.38V38.9589V36.8233H136.313C137.272 36.8233 137.723 36.5907 137.723 36.0957C137.723 35.9538 137.798 35.8376 137.89 35.8376C137.982 35.8376 138.058 35.7637 138.058 35.6733C138.058 35.573 137.277 35.5091 136.05 35.5091H134.042V42.2445ZM190.973 37.2451C190.029 38.1856 189.258 39.0317 189.258 39.125C189.258 39.2185 188.053 40.4744 186.58 41.9159C185.108 43.3574 183.903 44.6143 183.903 44.7088C183.903 44.8034 182.774 45.986 181.393 47.3371C180.013 48.6881 178.884 49.8711 178.884 49.966C178.884 50.0611 177.897 51.103 176.692 52.2813C175.487 53.4597 174.541 54.4634 174.59 54.5119C174.64 54.5602 175.284 54.0007 176.022 53.2683C176.76 52.536 177.444 51.9368 177.542 51.9368C177.64 51.9368 178.771 50.9019 180.055 49.637C181.339 48.372 182.468 47.3371 182.565 47.3371C182.661 47.3371 183.791 46.3021 185.075 45.0372C186.358 43.7722 187.487 42.7373 187.582 42.7373C187.835 42.7373 191.265 39.3302 191.265 39.0791C191.265 38.9625 191.416 38.7606 191.6 38.6303C191.784 38.5001 191.935 38.262 191.935 38.1012C191.935 37.9405 192.01 37.809 192.102 37.809C192.194 37.809 192.269 37.5872 192.269 37.3161C192.269 37.0451 192.345 36.8233 192.437 36.8233C192.529 36.8233 192.604 36.6015 192.604 36.3305C192.604 36.0594 192.679 35.8376 192.771 35.8376C192.863 35.8376 192.939 35.7637 192.939 35.6733C192.939 35.3413 192.652 35.5703 190.973 37.2451ZM249.493 42.2445V48.9798H250.162H250.831V45.8586C250.831 43.8872 250.893 42.7373 250.999 42.7373C251.091 42.7373 251.166 42.9591 251.166 43.2301C251.166 43.5012 251.241 43.723 251.333 43.723C251.425 43.723 251.501 44.0926 251.501 44.5443C251.501 44.9961 251.576 45.3657 251.668 45.3657C251.76 45.3657 251.835 45.5558 251.835 45.7881C251.835 46.3271 252.195 46.68 252.744 46.68C253.11 46.68 253.174 46.607 253.174 46.1871C253.174 45.9161 253.249 45.6943 253.341 45.6943C253.433 45.6943 253.509 45.3986 253.509 45.0372C253.509 44.6758 253.584 44.3801 253.676 44.3801C253.768 44.3801 253.843 44.0104 253.843 43.5587C253.843 43.1069 253.918 42.7373 254.01 42.7373C254.116 42.7373 254.178 43.8872 254.178 45.8586V48.9798H254.847H255.516V42.2445V35.5091H254.847C254.215 35.5091 254.178 35.5365 254.178 36.0019C254.178 36.273 254.102 36.4947 254.01 36.4947C253.918 36.4947 253.843 36.8644 253.843 37.3161C253.843 37.7679 253.768 38.1375 253.676 38.1375C253.584 38.1375 253.509 38.5071 253.509 38.9589C253.509 39.4107 253.433 39.7803 253.341 39.7803C253.248 39.7803 253.174 40.2184 253.174 40.766C253.174 41.3135 253.1 41.7516 253.007 41.7516C252.915 41.7516 252.839 42.1212 252.839 42.573C252.839 43.0248 252.764 43.3944 252.672 43.3944C252.58 43.3944 252.505 43.2465 252.505 43.0658C252.505 42.8851 252.429 42.7373 252.337 42.7373C252.245 42.7373 252.17 42.3677 252.17 41.9159C252.17 41.4641 252.095 41.0945 252.003 41.0945C251.911 41.0945 251.835 40.7249 251.835 40.2731C251.835 39.8214 251.76 39.4517 251.668 39.4517C251.576 39.4517 251.501 39.0821 251.501 38.6303C251.501 38.1786 251.425 37.809 251.333 37.809C251.241 37.809 251.166 37.4393 251.166 36.9876C251.166 36.5358 251.091 36.1662 250.999 36.1662C250.907 36.1662 250.831 36.0183 250.831 35.8376C250.831 35.5638 250.72 35.5091 250.162 35.5091H249.493V42.2445ZM270.241 42.2445V48.9798H272.009C273.938 48.9798 274.256 48.8537 274.256 48.088C274.256 47.6696 274.244 47.6656 272.918 47.6656H271.579V45.0372V42.4087H272.416C273.141 42.4087 273.252 42.3649 273.252 42.0802C273.252 41.8995 273.328 41.7516 273.42 41.7516C273.512 41.7516 273.587 41.6038 273.587 41.4231C273.587 41.131 273.475 41.0945 272.583 41.0945H271.579V38.9589V36.8233H272.511C273.471 36.8233 273.922 36.5907 273.922 36.0957C273.922 35.9538 273.997 35.8376 274.089 35.8376C274.181 35.8376 274.256 35.7637 274.256 35.6733C274.256 35.573 273.475 35.5091 272.248 35.5091H270.241V42.2445ZM287.976 36.1662V36.8233H288.98H289.984V42.9016V48.9798H290.654H291.323V42.9016V36.8233H292.255C293.214 36.8233 293.665 36.5907 293.665 36.0957C293.665 35.9538 293.741 35.8376 293.833 35.8376C293.925 35.8376 294 35.7637 294 35.6733C294 35.5698 292.884 35.5091 290.988 35.5091H287.976V36.1662ZM40.7727 36.7295C40.9699 36.923 41.0118 37.8871 41.0118 42.2445C41.0118 47.8958 40.9974 47.9942 40.1752 47.9942C39.353 47.9942 39.3386 47.8954 39.3386 42.2492C39.3386 38.2627 39.3896 36.9168 39.5477 36.7405C39.8198 36.4371 40.4691 36.4313 40.7727 36.7295ZM233.526 36.7295C233.723 36.923 233.765 37.8871 233.765 42.2445C233.765 47.8958 233.75 47.9942 232.928 47.9942C232.106 47.9942 232.092 47.8954 232.092 42.2492C232.092 38.2627 232.143 36.9168 232.301 36.7405C232.573 36.4371 233.222 36.4313 233.526 36.7295ZM60.1818 37.058C60.3629 37.2356 60.4209 37.7777 60.4209 39.2875C60.4209 41.5358 60.3267 41.7516 59.3452 41.7516H58.7477V39.2875V36.8233H59.3452C59.674 36.8233 60.0505 36.9289 60.1818 37.058Z" fill="black"/>
</g>
<defs>
<clipPath id="clip0_111_749">
<rect width="256" height="34" fill="white" transform="translate(38 25)"/>
</clipPath>
</defs>
</svg>
