<svg width="332" height="84" viewBox="0 0 332 84" fill="none" xmlns="http://www.w3.org/2000/svg">
<rect width="332" height="84" fill="white"/>
<path fill-rule="evenodd" clip-rule="evenodd" d="M85.3892 27.209C84.6387 27.4873 83.7406 28.4198 83.4811 29.1899C83.3045 29.714 83.2743 30.4089 83.2743 33.9579V38.1123L84.4234 36.9766C85.0554 36.3518 86.5398 34.8814 87.7223 33.7089L89.8723 31.5771L89.8126 30.5636C89.7185 28.9626 89.142 27.9721 87.9451 27.3548C87.2709 27.0069 86.1122 26.9408 85.3892 27.209ZM95.9236 27.3204C95.3487 27.5884 94.3392 28.5484 89.4974 33.4324C83.463 39.5193 83.2086 39.8199 83.0665 41.0336C82.7704 43.5617 85.5693 45.5055 87.8097 44.3278C88.0777 44.1869 89.4962 42.8546 90.962 41.3669C92.4278 39.8793 93.6696 38.6622 93.7213 38.6622C93.7731 38.6622 93.8166 41.8645 93.8181 45.7786C93.8207 52.6638 93.829 52.9134 94.0732 53.4594C95.0864 55.7255 98.1139 56.1841 99.6989 54.3115C100.521 53.3409 100.512 53.4313 100.512 45.6372V38.612L103.215 41.3271C105.342 43.4636 106.062 44.1099 106.594 44.3605C108.77 45.3844 111.227 43.7971 111.222 41.3717C111.219 39.8941 111.263 39.9489 104.817 33.4419C99.3219 27.8954 98.9178 27.5155 98.2441 27.266C97.3078 26.919 96.757 26.9319 95.9236 27.3204ZM120.11 27.2008C119.094 27.4769 118.716 27.7471 118.37 28.4442L118.06 29.0691L118.026 42.3365L117.992 55.604L122.075 55.5662C125.953 55.5304 126.171 55.5159 126.435 55.2777C127.019 54.7509 127.051 54.4847 127.051 50.1403C127.051 46.2669 127.063 46.0485 127.292 45.817C127.587 45.5187 128.135 45.4056 129.035 45.4572L129.717 45.4965L132.5 50.5438L135.283 55.5912H140.233C144.871 55.5912 145.178 55.5775 145.101 55.3746C145.056 55.2555 143.543 52.7156 141.739 49.7304C139.935 46.7452 138.445 44.241 138.429 44.1656C138.412 44.0903 138.821 43.8465 139.337 43.6239C140.562 43.0961 141.219 42.6286 142.151 41.6209C145.642 37.8466 144.411 30.6372 139.861 28.2199C137.877 27.1652 136.167 26.9977 127.485 27.0084C122.003 27.015 120.665 27.0499 120.11 27.2008ZM197.094 27.1754C196.774 27.2626 196.416 27.4139 196.299 27.5118C195.745 27.9766 195.754 27.7508 195.754 42.0491V55.6016L199.547 55.565L203.34 55.5285L203.639 55.1766C203.934 54.83 203.938 54.7877 203.938 52.2999V49.7751L204.652 49.1089C205.549 48.2702 206.074 48.0679 206.497 48.3977C206.662 48.5263 207.681 50.1833 208.762 52.08L210.726 55.5285L215.466 55.5613C218.073 55.5794 220.187 55.5477 220.164 55.4909C220.141 55.4339 218.295 52.4489 216.061 48.8573C213.827 45.2659 211.999 42.2763 211.999 42.214C211.999 42.1518 213.756 40.4384 215.903 38.4065L219.806 34.7121L214.762 34.6794L209.719 34.6465L207.668 36.8112C206.54 38.0016 205.268 39.3425 204.842 39.7908L204.067 40.6059L204.065 33.8029L204.062 27L200.869 27.0084C198.711 27.0142 197.487 27.0682 197.094 27.1754ZM133.566 33.46C134.619 34.0046 135.034 34.7125 135.095 36.0693C135.15 37.2942 134.982 37.9021 134.413 38.5392C133.615 39.432 132.998 39.5794 129.81 39.6384L127.051 39.6896V36.8642C127.051 35.3101 127.104 33.8971 127.169 33.7241C127.409 33.0864 127.756 33.0141 130.408 33.0494L132.836 33.0819L133.566 33.46ZM228.784 33.5188C223.769 34.2387 220.372 37.2932 219.369 41.9853C219.081 43.3365 219.081 45.9009 219.369 47.2521C220.337 51.7797 223.505 54.9103 227.991 55.7706C229.306 56.0229 232.202 56.0295 233.592 55.7833C235.708 55.4087 237.465 54.6107 239.115 53.2757C240.656 52.0292 241.287 50.6156 240.595 49.9585C240.286 49.6648 239.908 49.5112 236.709 48.3778L234.818 47.7079L234.514 48.2336C233.795 49.474 232.755 50.0811 231.309 50.1051C229.187 50.1404 227.811 48.9622 227.653 46.9736L227.591 46.1862H234.154C240.714 46.1862 240.718 46.1861 241.271 45.904C241.762 45.6536 241.842 45.5513 241.983 44.9949C242.246 43.959 241.956 41.7783 241.333 40.1062C240.158 36.9486 237.311 34.5757 233.723 33.7639C232.488 33.4844 229.914 33.3566 228.784 33.5188ZM153.527 34.2002C150.024 34.7896 147.755 36.1344 146.781 38.1976C146.119 39.5997 146.308 40.407 147.351 40.6302C147.61 40.6858 149.129 40.7313 150.724 40.7313H153.626L153.797 40.2335C154.174 39.1311 155.084 38.6948 156.738 38.8217C158.31 38.9423 159.294 39.5775 159.294 40.4707C159.294 41.3139 158.81 41.4797 154.5 42.1116C150.201 42.742 148.736 43.2271 147.302 44.4959C145.599 46.0019 144.842 48.3789 145.328 50.6888C145.886 53.3428 147.502 55.0082 150.223 55.7365C151.331 56.033 153.764 56.0905 155.078 55.8515C156.573 55.5794 158.099 54.9787 159.263 54.2045L159.666 53.9364V54.7638V55.5912H162.9H166.134L166.481 55.2404C167.069 54.6454 167.107 54.1453 167.107 46.9435C167.107 39.5815 167.059 38.9994 166.348 37.6498C165.844 36.6937 164.741 35.6551 163.692 35.149C163.247 34.9342 162.341 34.6133 161.678 34.4358C160.572 34.1398 160.226 34.1098 157.496 34.0733C155.427 34.0455 154.217 34.0842 153.527 34.2002ZM182.742 34.2841C181.055 34.6187 179.87 35.2577 178.733 36.4457L177.896 37.3202V35.9773V34.6345L174.573 34.6732C170.944 34.7156 170.856 34.7328 170.364 35.492C170.16 35.8061 170.143 36.5155 170.111 45.7103L170.077 55.5912H173.658C176.01 55.5912 177.377 55.5423 177.643 55.4489C178.38 55.1888 178.392 55.0876 178.393 48.9177C178.393 45.5846 178.443 43.1834 178.518 42.911C178.865 41.6467 179.827 40.9986 181.356 40.9986C182.631 40.9986 183.341 41.3318 183.819 42.1541L184.158 42.7377L184.194 49.1712L184.229 55.6047L188.004 55.5666L191.78 55.5285L192.124 55.1808L192.467 54.8329V47.5314C192.467 39.4042 192.478 39.5247 191.603 37.714C190.782 36.0151 189.066 34.7793 186.923 34.3425C185.896 34.1334 183.659 34.1022 182.742 34.2841ZM256.885 34.2785C255.147 34.4353 253.947 34.8989 252.699 35.8962C252.345 36.1793 252.052 36.3672 252.047 36.3138C252.043 36.2605 252.029 35.8501 252.016 35.4018L251.993 34.5867L248.977 34.5531C247.158 34.5329 245.769 34.5715 245.479 34.6504C244.772 34.843 244.296 35.305 244.134 35.9572C244.037 36.3461 243.994 39.4197 243.994 46.0589V55.6018L247.643 55.5652L251.292 55.5285L251.625 55.215C251.808 55.0426 252.021 54.7604 252.098 54.588C252.192 54.3792 252.26 52.5772 252.302 49.1958L252.365 44.1171L252.714 43.3993C253.133 42.5364 253.838 41.8953 254.774 41.5266C255.333 41.3061 255.804 41.2432 257.233 41.198L259 41.1424V37.6451V34.1478L258.473 34.1652C258.183 34.1749 257.469 34.2258 256.885 34.2785ZM75.1689 38.7344C74.7718 38.8625 74.3654 39.1316 73.9776 39.5238C72.9462 40.5668 72.7117 41.9892 73.3659 43.2344C73.5593 43.6027 75.5838 45.7504 79.1543 49.3747C84.1812 54.4778 84.7028 54.9706 85.3285 55.2072C86.1919 55.5339 86.5624 55.532 87.4492 55.1964C88.0824 54.9569 88.4042 54.6766 90.3646 52.6571L92.5682 50.3871L92.5717 45.8739L92.5753 41.3608L90.312 43.6357C89.0673 44.8869 87.856 46.0082 87.6204 46.1276C87.0585 46.4122 85.8352 46.5037 85.1345 46.3136C84.4847 46.1372 84.1535 45.8141 80.6047 41.8948C79.0108 40.1345 78.0685 39.1951 77.6835 38.9828C76.9485 38.5774 75.9597 38.4797 75.1689 38.7344ZM231.903 38.8003C232.527 38.9723 232.901 39.3167 233.28 40.0688C233.667 40.8374 233.669 41.3549 233.285 41.6087C233.041 41.7709 232.561 41.7967 230.324 41.7683L227.654 41.7345L227.883 40.9821C228.434 39.1786 230.064 38.2935 231.903 38.8003ZM159.137 46.7275C159.013 48.3922 158.236 49.5152 156.708 50.2379C156.038 50.5552 155.721 50.6291 155.016 50.633C153.971 50.6389 153.422 50.3678 153.064 49.6692C152.775 49.1052 152.849 48.6069 153.306 48.0587C153.753 47.5214 154.358 47.2453 156.162 46.7551C157.032 46.5189 158.051 46.2137 158.426 46.077C158.801 45.9402 159.13 45.8242 159.157 45.8191C159.184 45.8141 159.175 46.2229 159.137 46.7275Z" fill="black"/>
</svg>
