<svg width="332" height="84" viewBox="0 0 332 84" fill="none" xmlns="http://www.w3.org/2000/svg">
<rect width="332" height="84" fill="white"/>
<path fill-rule="evenodd" clip-rule="evenodd" d="M85.4524 34.1444C82.6059 34.7339 80.4121 36.4812 79.3823 38.9791C78.8568 40.2535 78.7692 40.7696 78.775 42.5544C78.78 44.066 78.8009 44.2654 79.0342 45.0253C79.9514 48.0118 82.0342 49.9815 85.0907 50.7528C86.2247 51.039 88.4759 51.038 89.5266 50.7511C92.0405 50.0644 93.7626 48.7538 94.8648 46.6887C96.6797 43.2881 96.002 38.7433 93.3078 36.2485C92.2704 35.288 91.3431 34.7742 89.8216 34.3168C89.1311 34.1093 88.7925 34.0682 87.5537 34.0418C86.5489 34.0203 85.8976 34.0522 85.4524 34.1444ZM173.807 34.1492C171.926 34.5573 170.668 35.2279 169.429 36.4832C168.459 37.4656 167.941 38.3073 167.513 39.5946C166.363 43.0589 167.419 47.0088 170.057 49.108C173.427 51.7902 178.647 51.5974 181.716 48.6772C182.788 47.6572 183.537 46.3647 183.961 44.8032C184.146 44.1218 184.176 43.7938 184.172 42.4604C184.168 41.1654 184.133 40.7862 183.96 40.1584C183.104 37.0388 180.758 34.8323 177.604 34.1813C176.585 33.9708 174.703 33.9549 173.807 34.1492ZM261.811 34.1C259.411 34.505 257.611 35.9417 257.113 37.8487C256.74 39.278 257.032 40.7323 257.911 41.826C258.304 42.3159 259.285 42.9595 260.175 43.3123C260.585 43.4746 261.684 43.7951 262.618 44.0245C264.784 44.5566 265.389 44.7563 265.85 45.0907C266.756 45.7465 266.522 46.9088 265.364 47.51C264.938 47.731 264.747 47.7658 263.778 47.7986C262.971 47.8259 262.484 47.7933 261.962 47.677C261.023 47.4682 259.574 46.734 258.886 46.1194C258.587 45.8516 258.328 45.6481 258.311 45.6673C258.117 45.8842 256.472 48.3011 256.472 48.3687C256.472 48.5314 257.472 49.319 258.225 49.7493C259.129 50.2659 260.425 50.6919 261.679 50.8843C262.909 51.0733 264.764 51.0063 265.819 50.7347C268.467 50.0533 270 48.2246 270 45.7491C270 43.9263 269.198 42.6243 267.536 41.7511C266.672 41.297 266.137 41.119 263.892 40.5378C261.777 39.9904 261.193 39.7615 260.84 39.3419C260.524 38.9668 260.522 38.3989 260.834 37.9394C261.188 37.4185 261.859 37.1686 262.907 37.1676C264.44 37.1662 265.842 37.608 267.058 38.4759C267.393 38.7152 267.7 38.8746 267.74 38.83C267.853 38.7034 269.487 36.5072 269.561 36.383C269.643 36.2463 268.767 35.558 267.927 35.0976C266.335 34.2263 263.654 33.7889 261.811 34.1ZM62 35.8361V37.3865H64.395H66.7901L66.8142 44.0343L66.8383 50.6821L68.5998 50.7077L70.3613 50.7332V44.0599V37.3865H72.757H75.1527V35.8361V34.2858H68.5763H62V35.8361ZM101.011 42.4839L101.035 50.6821L102.796 50.7077L104.557 50.7332L104.581 45.4212L104.605 40.1091L108.487 45.4191L112.368 50.7291H114.053H115.738V42.5074V34.2858H114.001H112.264L112.239 39.4028L112.215 44.52L108.457 39.4077L104.699 34.2954L102.843 34.2906L100.987 34.2858L101.011 42.4839ZM120.186 34.6362C120.309 34.8311 121.726 37.0134 123.335 39.4858L126.26 43.981V47.3572V50.7332L128.022 50.7077L129.783 50.6821L129.83 47.2525L129.877 43.8229L132.828 39.2657C134.451 36.7593 135.84 34.6134 135.915 34.4972L136.052 34.2858L134.045 34.2865L132.038 34.2874L130.14 37.3638C129.097 39.0558 128.188 40.5149 128.121 40.6061C128.012 40.7532 127.773 40.4063 126.011 37.5524L124.024 34.3328L121.992 34.3074L119.961 34.2821L120.186 34.6362ZM149.277 42.5074V50.7291H151.062H152.847V47.8163V44.9034H154.11H155.372L156.983 47.8163L158.593 50.7291H160.615C162.196 50.7291 162.628 50.7034 162.591 50.6116C162.565 50.5471 161.738 49.1411 160.753 47.4874C159.046 44.621 158.972 44.4768 159.17 44.3981C160.946 43.6907 161.956 42.6175 162.375 40.9905C162.562 40.264 162.564 38.9326 162.38 38.1479C161.945 36.3053 160.487 34.8826 158.57 34.4306C158.078 34.3147 157.167 34.2883 153.622 34.2872L149.277 34.2858V42.5074ZM189.393 42.5074V50.7291H194.082C199.147 50.7291 199.639 50.6918 200.688 50.2276C201.283 49.9645 202.071 49.2806 202.427 48.7189C202.981 47.8445 203.23 46.4513 203.016 45.4204C202.708 43.9385 201.703 42.7223 200.487 42.3577L200.089 42.2386L200.654 41.9822C202.557 41.118 203.319 38.6297 202.309 36.5717C201.78 35.4922 200.845 34.7733 199.507 34.4171C199.126 34.3157 197.991 34.2877 194.208 34.2869L189.393 34.2858V42.5074ZM208.393 42.4839L208.417 50.6821H213.397C218.838 50.6821 218.809 50.6846 219.949 50.1068C222.433 48.848 222.875 44.9829 220.754 43.0671C220.381 42.73 219.545 42.2805 219.268 42.268C219.191 42.2645 219.349 42.1608 219.621 42.0375C220.932 41.4413 221.805 40.013 221.801 38.4671C221.797 36.4818 220.567 34.9525 218.551 34.4275C218.101 34.3101 217.18 34.2858 213.188 34.2858H208.369L208.393 42.4839ZM227.442 42.5095V50.7332L229.203 50.7077L230.965 50.6821L230.989 42.4839L231.013 34.2858H229.227H227.442V42.5095ZM236.86 42.4839L236.883 50.6821L238.644 50.7077L240.405 50.7332L240.429 45.4077L240.453 40.0822L244.344 45.4057L248.235 50.7291H249.911H251.586V42.5074V34.2858H249.848H248.11V39.3652C248.11 42.1589 248.076 44.4238 248.035 44.3981C247.993 44.3725 246.292 42.0873 244.253 39.32L240.547 34.2885L238.691 34.2871L236.835 34.2858L236.86 42.4839ZM88.4246 37.2427C91.1573 37.8218 92.7546 40.6883 92.1029 43.8438C91.7724 45.4442 90.8452 46.6805 89.461 47.3665C88.6899 47.7487 88.6375 47.7605 87.5544 47.7992C86.6172 47.8326 86.3384 47.8078 85.7955 47.6429C84.1558 47.1448 82.982 45.8628 82.5129 44.0578C82.3 43.2384 82.3032 41.6733 82.5194 40.8706C83.2511 38.1542 85.6812 36.6612 88.4246 37.2427ZM177.313 37.3833C178.836 37.9088 179.987 39.2148 180.419 40.9063C180.603 41.6285 180.602 43.2629 180.417 44.0481C180.251 44.7522 179.743 45.7624 179.285 46.2976C178.822 46.8388 177.917 47.4109 177.16 47.6406C176.606 47.8089 176.342 47.8322 175.411 47.7949C174.221 47.7472 173.829 47.6355 172.988 47.1041C171.938 46.4417 171.211 45.392 170.872 44.0483C170.705 43.3888 170.682 43.0914 170.726 42.1809C170.755 41.5853 170.841 40.9041 170.917 40.6671C171.489 38.8824 172.801 37.6251 174.494 37.2377C175.255 37.0635 176.586 37.1322 177.313 37.3833ZM157.474 37.5206C158.401 37.8513 158.896 38.5595 158.891 39.5479C158.886 40.5136 158.497 41.1238 157.639 41.5129C157.252 41.6881 157.027 41.7048 155.032 41.7067L152.847 41.7087V39.5476V37.3865L154.985 37.3906C156.523 37.3936 157.221 37.43 157.474 37.5206ZM198.177 37.5641C198.839 37.8695 199.164 38.371 199.164 39.0869C199.164 39.838 198.684 40.4707 197.963 40.671C197.765 40.7259 196.583 40.7683 195.241 40.7686L192.869 40.7691V39.0778V37.3865L195.335 37.3886C197.532 37.3905 197.842 37.4096 198.177 37.5641ZM217.178 37.531C217.869 37.82 218.171 38.2906 218.171 39.0778C218.171 39.7301 217.967 40.1315 217.464 40.4641L217.075 40.7222L214.508 40.7512L211.94 40.7802V39.0834V37.3865H214.386C216.374 37.3865 216.896 37.4136 217.178 37.531ZM198.186 44.0083C198.646 44.145 199.12 44.5389 199.34 44.9677C199.398 45.0807 199.445 45.4363 199.445 45.7581C199.445 46.5435 199.154 47.0539 198.531 47.3609C198.099 47.5734 197.989 47.5825 195.476 47.6126L192.869 47.6438V45.7568V43.8699H195.295C197.157 43.8699 197.828 43.902 198.186 44.0083ZM217.53 44.1183C217.992 44.3655 218.185 44.5729 218.372 45.0213C218.635 45.65 218.5 46.5211 218.067 47.0007C217.978 47.0985 217.737 47.2689 217.53 47.3793C217.177 47.5681 216.997 47.5821 214.547 47.612L211.94 47.6438V45.7502V43.8566L214.547 43.8867C217.002 43.9151 217.176 43.9287 217.53 44.1183Z" fill="black"/>
</svg>
